<?xml version="1.0" encoding="utf-8"?>
<!-- Generator: Adobe Illustrator 27.5.0, SVG Export Plug-In . SVG Version: 6.00 Build 0)  -->
<svg version="1.1" id="Layer_1" xmlns="http://www.w3.org/2000/svg" xmlns:xlink="http://www.w3.org/1999/xlink" x="0px" y="0px"
	 viewBox="0 0 2599 1733" style="enable-background:new 0 0 2599 1733;" xml:space="preserve">
<g>
	<rect style="fill:#FFFFFF;" width="2598.076" height="1732.051"/>
	<g>
		<g>
			<g>
				<path style="fill:#CCCCCC;" d="M2359.391,1636.172c-0.575,0-1.157-0.132-1.692-0.408c-1.327-0.684-2.112-2.103-1.985-3.592
					l2.408-28.573c-14.231-0.887-28.208-12.078-33.694-27.603c-3.4-9.62-7.791-34.352,24.776-56.156
					c24.033-16.086,69.3-41.394,102.345-30.073c14.313,4.898,24.456,16.054,30.147,33.154c4.337,13.024,3.518,24.94-2.438,35.417
					c-10.087,17.743-34.824,31.098-73.525,39.693l-43.954,37.265C2361.097,1635.876,2360.246,1636.172,2359.391,1636.172z
					 M2362.14,1596.182c0.972,0,1.909,0.382,2.602,1.072c0.772,0.77,1.166,1.841,1.075,2.928l-2,23.712l37.84-32.082
					c0.461-0.39,1.01-0.66,1.597-0.79c37.089-8.123,60.502-20.344,69.588-36.331c4.945-8.701,5.553-18.33,1.853-29.439
					c-4.927-14.801-13.517-24.391-25.533-28.503c-21.951-7.509-56.884,3.136-95.852,29.222
					c-19.904,13.329-27.897,30.663-21.924,47.563c4.875,13.799,18.201,23.754,30.426,22.662
					C2361.919,1596.185,2362.031,1596.182,2362.14,1596.182z"/>
			</g>
			<g>
				<path style="fill:#CCCCCC;" d="M2371.211,1569.275c-6.096,0-11.309-2.746-13.42-7.676c-3.122-7.288,1.882-16.189,11.391-20.262
					c9.506-4.07,19.407-1.547,22.526,5.735c1.563,3.65,1.09,7.976-1.295,11.872c-2.179,3.553-5.764,6.531-10.099,8.387
					C2377.239,1568.649,2374.124,1569.275,2371.211,1569.275z M2378.32,1546.783c-1.95,0-4.117,0.432-6.234,1.336
					c-5.418,2.323-8.93,7.262-7.511,10.572c1.418,3.31,7.412,4.179,12.836,1.856c2.898-1.242,5.344-3.23,6.71-5.459
					c0.658-1.075,1.638-3.166,0.805-5.109C2384.034,1547.902,2381.459,1546.783,2378.32,1546.783z"/>
			</g>
			<g>
				<path style="fill:#CCCCCC;" d="M2426.662,1545.529c-1.357,0-2.687-0.135-3.965-0.411c-4.475-0.96-7.937-3.603-9.497-7.25
					c-1.562-3.644-1.086-7.973,1.307-11.875c2.179-3.553,5.761-6.531,10.087-8.381c9.508-4.076,19.404-1.553,22.523,5.732l0,0
					c3.121,7.288-1.885,16.189-11.394,20.262C2432.752,1544.878,2429.639,1545.529,2426.662,1545.529z M2433.659,1523.089
					c-1.947,0-4.097,0.423-6.161,1.307c-2.89,1.236-5.333,3.224-6.702,5.456c-0.66,1.078-1.644,3.174-0.813,5.113
					c0.831,1.941,3.028,2.675,4.261,2.94c2.56,0.549,5.682,0.153,8.574-1.081c5.418-2.323,8.933-7.262,7.515-10.571
					C2439.456,1524.202,2436.822,1523.089,2433.659,1523.089z"/>
			</g>
		</g>
		<g>
			<g>
				<path style="fill:#CCCCCC;" d="M2390.433,239.946c-17.173,0.003-38.622-6.699-64.061-20.04l-57.63,0.097
					c-0.003,0-0.003,0-0.006,0c-1.491,0-2.836-0.896-3.406-2.273c-0.573-1.38-0.258-2.969,0.799-4.026l20.28-20.271
					c-10.295-9.861-13.752-27.431-7.923-42.833c3.612-9.541,16.207-31.277,55.169-26.901c28.74,3.221,79.636,13.103,97.587,43.082
					c7.77,12.977,8.316,28.041,1.63,44.777c-5.092,12.747-13.411,21.319-24.72,25.48
					C2402.875,238.977,2396.961,239.946,2390.433,239.946z M2327.28,212.527c0.602,0,1.193,0.144,1.724,0.426
					c33.574,17.734,59.351,23.504,76.603,17.158c9.392-3.453,16.069-10.419,20.412-21.29c5.788-14.486,5.415-27.354-1.107-38.249
					c-11.919-19.906-45.478-34.316-92.078-39.538c-23.81-2.678-41.1,5.415-47.443,22.18c-5.183,13.684-1.398,29.915,8.616,36.944
					c0.893,0.626,1.463,1.615,1.556,2.699c0.094,1.086-0.296,2.159-1.069,2.931l-16.83,16.821l49.61-0.082
					C2327.277,212.527,2327.277,212.527,2327.28,212.527z"/>
			</g>
			<g>
				<path style="fill:#CCCCCC;" d="M2333.723,181.118c-2.282,0-4.637-0.355-6.954-1.066c-4.485-1.371-8.361-3.944-10.916-7.244
					c-2.804-3.624-3.75-7.879-2.587-11.673c2.317-7.583,11.878-11.162,21.777-8.12c4.508,1.377,8.393,3.952,10.939,7.253
					c2.792,3.618,3.726,7.867,2.563,11.664c-1.159,3.794-4.313,6.795-8.65,8.231
					C2337.971,180.798,2335.881,181.118,2333.723,181.118z M2328.158,159.352c-3.85,0-7.08,1.474-7.837,3.944
					c-0.614,2.011,0.593,3.993,1.371,4.998c1.604,2.07,4.24,3.785,7.239,4.704c3.016,0.919,6.167,0.978,8.645,0.159
					c1.198-0.396,3.298-1.363,3.917-3.386c0.616-2.02-0.582-3.996-1.351-4.995c-1.597-2.07-4.24-3.785-7.257-4.704
					C2331.288,159.581,2329.676,159.352,2328.158,159.352z"/>
			</g>
			<g>
				<path style="fill:#CCCCCC;" d="M2391.399,198.767c-2.249,0-4.61-0.346-6.995-1.078c-4.496-1.374-8.378-3.949-10.927-7.247
					c-2.796-3.624-3.735-7.875-2.573-11.67c1.157-3.791,4.314-6.792,8.663-8.228c3.956-1.307,8.61-1.271,13.115,0.109
					c9.89,3.027,15.823,11.335,13.499,18.917C2404.423,195.325,2398.486,198.767,2391.399,198.767z M2385.738,176.975
					c-1.377,0-2.689,0.191-3.855,0.576c-1.201,0.396-3.307,1.362-3.92,3.38c-0.62,2.02,0.584,3.999,1.356,4.998
					c1.601,2.071,4.24,3.785,7.248,4.708c5.632,1.718,11.506,0.214,12.563-3.228c1.051-3.441-2.969-7.975-8.607-9.702
					C2388.927,177.218,2387.291,176.975,2385.738,176.975z"/>
			</g>
		</g>
		<g>
			<g>
				<path style="fill:#CCCCCC;" d="M253.065,1159.936c-16.037,0-35.777-4.819-59.034-14.439l-57.384,5.318
					c-1.489,0.173-2.91-0.635-3.606-1.956c-0.696-1.321-0.526-2.934,0.432-4.079l18.36-22.027
					c-11.149-8.889-16.181-26.071-11.77-41.937c2.733-9.832,13.282-32.599,52.503-31.795c28.913,0.602,80.494,5.832,101.088,34.058
					c8.915,12.222,10.827,27.175,5.682,44.451c-3.917,13.156-11.42,22.445-22.306,27.612
					C270.293,1158.339,262.294,1159.936,253.065,1159.936z M194.601,1138.051c0.487,0,0.969,0.094,1.421,0.281
					c35.039,14.615,61.23,18.022,77.842,10.146c9.042-4.293,15.059-11.831,18.4-23.055c4.452-14.95,2.913-27.733-4.572-37.993
					c-13.673-18.741-48.401-30.05-95.28-31.031c-23.962-0.473-40.442,9.118-45.241,26.394c-3.919,14.098,1.322,29.914,11.928,36.008
					c0.946,0.543,1.601,1.477,1.795,2.549c0.191,1.075-0.1,2.176-0.799,3.013l-15.235,18.28l49.398-4.578
					C194.375,1138.053,194.486,1138.051,194.601,1138.051z"/>
			</g>
			<g>
				<path style="fill:#CCCCCC;" d="M195.787,1106.289c-1.635,0-3.307-0.17-4.971-0.52c-10.125-2.121-16.788-9.858-15.164-17.616
					c1.624-7.756,10.824-12.187,20.952-10.064c4.616,0.966,8.719,3.18,11.552,6.235c3.107,3.35,4.425,7.5,3.612,11.382l0,0
					c-0.814,3.885-3.682,7.16-7.87,8.983C201.454,1105.749,198.679,1106.289,195.787,1106.289z M191.734,1084.963
					c-4.467,0-8.266,1.868-8.859,4.699c-0.737,3.524,3.679,7.676,9.45,8.883c3.083,0.643,6.231,0.42,8.627-0.622
					c1.154-0.505,3.16-1.656,3.592-3.726l0,0c0.435-2.071-0.94-3.93-1.797-4.854c-1.777-1.914-4.566-3.383-7.653-4.029
					C193.957,1085.075,192.827,1084.963,191.734,1084.963z"/>
			</g>
			<g>
				<path style="fill:#CCCCCC;" d="M254.768,1118.631c-1.63,0-3.295-0.174-4.954-0.52c-4.604-0.963-8.704-3.177-11.54-6.231
					c-3.116-3.353-4.437-7.503-3.623-11.385c0.813-3.885,3.685-7.159,7.884-8.98c3.82-1.662,8.46-2.044,13.067-1.084
					c10.125,2.12,16.786,9.858,15.164,17.616l0,0c-0.813,3.885-3.685,7.156-7.884,8.98
					C260.438,1118.091,257.657,1118.631,254.768,1118.631z M250.657,1097.294c-1.885,0-3.679,0.335-5.183,0.987
					c-1.16,0.505-3.169,1.656-3.601,3.723c-0.431,2.068,0.946,3.926,1.806,4.854c1.783,1.918,4.566,3.386,7.644,4.03
					c3.077,0.646,6.22,0.417,8.619-0.629c1.16-0.502,3.169-1.656,3.601-3.721l0,0c0.737-3.524-3.68-7.676-9.45-8.883
					C252.941,1097.414,251.781,1097.294,250.657,1097.294z M267.154,1107.293h0.059H267.154z"/>
			</g>
		</g>
		<g>
			<g>
				<path style="fill:#CCCCCC;" d="M1353.991,1592.138c-15.582,0-34.616-4.234-56.943-12.688l-57.193,7.048
					c-1.495,0.179-2.928-0.547-3.664-1.848c-0.734-1.301-0.614-2.916,0.308-4.09l17.684-22.568
					c-11.409-8.548-16.959-25.571-13.029-41.564c2.434-9.911,12.33-32.995,51.519-33.362c28.872-0.303,80.632,3.395,102.071,30.99
					c9.28,11.946,11.641,26.837,7.018,44.256c-3.515,13.271-10.739,22.782-21.463,28.276
					C1373.073,1590.288,1364.283,1592.138,1353.991,1592.138z M1297.506,1571.988c0.449,0,0.896,0.079,1.315,0.24
					c35.462,13.552,61.744,16.175,78.115,7.791c8.907-4.56,14.695-12.281,17.693-23.598c3.999-15.077,2.076-27.807-5.715-37.838
					c-14.23-18.321-49.284-28.599-96.172-28.141c-23.953,0.226-40.146,10.339-44.421,27.745
					c-3.492,14.213,2.22,29.865,13.008,35.635c0.961,0.514,1.645,1.427,1.871,2.493c0.223,1.066-0.036,2.179-0.708,3.036
					l-14.677,18.729l49.237-6.066C1297.204,1571.997,1297.357,1571.988,1297.506,1571.988z"/>
			</g>
			<g>
				<path style="fill:#CCCCCC;" d="M1296.963,1540.226c-1.404,0-2.854-0.126-4.325-0.387c-4.619-0.823-8.781-2.91-11.711-5.876
					c-3.221-3.263-4.672-7.371-3.976-11.276c0.693-3.903,3.471-7.262,7.62-9.212c3.776-1.776,8.402-2.291,13.017-1.477
					c4.643,0.825,8.81,2.913,11.735,5.882c3.207,3.254,4.649,7.362,3.952,11.267l0,0
					C1312.086,1535.824,1305.282,1540.226,1296.963,1540.226z M1293.357,1519.001c-2.064,0-4.032,0.393-5.647,1.151
					c-1.149,0.541-3.128,1.753-3.495,3.827c-0.37,2.073,1.069,3.896,1.962,4.798c1.841,1.865,4.666,3.248,7.752,3.797
					c5.92,1.039,11.441-1.11,12.081-4.719l0,0c0.37-2.082-1.057-3.897-1.944-4.796c-1.833-1.861-4.666-3.245-7.77-3.797
					C1295.312,1519.086,1294.323,1519.001,1293.357,1519.001z"/>
			</g>
			<g>
				<path style="fill:#CCCCCC;" d="M1356.305,1550.78c-1.404,0-2.854-0.126-4.325-0.388c-10.181-1.812-17.073-9.347-15.687-17.152
					c1.392-7.803,10.454-12.501,20.641-10.689c10.181,1.812,17.073,9.347,15.687,17.153l0,0
					C1371.431,1546.379,1364.624,1550.78,1356.305,1550.78z M1352.757,1529.561c-4.675,0-8.675,2.023-9.2,4.971
					c-0.628,3.545,3.911,7.562,9.714,8.595c5.794,1.037,11.45-1.169,12.084-4.716l0,0c0.628-3.545-3.911-7.562-9.714-8.595
					C1354.669,1529.643,1353.7,1529.561,1352.757,1529.561z M1368.988,1539.058h0.059H1368.988z"/>
			</g>
		</g>
		<g>
			<g>
				<path style="fill:#CCCCCC;" d="M2118.643,1523.118c-19.449,0-43.126-12.313-70.48-36.666l-55.936-13.855
					c-1.451-0.361-2.54-1.559-2.763-3.036c-0.22-1.477,0.47-2.94,1.75-3.709l24.582-14.759c-7.602-12.061-6.704-29.941,2.681-43.473
					c5.811-8.384,23.293-26.429,60.041-12.757c27.108,10.081,74.095,31.985,84.256,65.42c4.399,14.472,1.286,29.222-9.256,43.843
					c-8.025,11.135-18.171,17.44-30.149,18.738C2121.821,1523.033,2120.247,1523.118,2118.643,1523.118z M2002.67,1467.582
					l48.154,11.925c0.584,0.147,1.125,0.432,1.574,0.834c28.285,25.331,51.903,37.118,70.175,35.189
					c9.949-1.078,18.113-6.22,24.961-15.719c9.121-12.654,11.875-25.231,8.181-37.382c-6.745-22.197-35.82-44.301-79.769-60.646
					c-22.453-8.349-41.191-4.69-51.405,10.04c-8.34,12.025-8.592,28.685-0.581,37.929c0.716,0.822,1.028,1.92,0.857,2.998
					c-0.173,1.075-0.81,2.02-1.744,2.581L2002.67,1467.582z"/>
			</g>
			<g>
				<path style="fill:#CCCCCC;" d="M2069.576,1451.228c-3.65,0-7.629-1.096-11.379-3.351c-8.865-5.333-12.61-14.833-8.525-21.625
					c4.088-6.795,14.231-7.934,23.097-2.61c8.865,5.333,12.61,14.829,8.525,21.625c0,0,0,0,0,0.003
					C2078.936,1449.187,2074.56,1451.228,2069.576,1451.228z M2061.36,1427.715c-2.414,0-4.425,0.781-5.362,2.341
					c-1.856,3.086,0.948,8.457,6.002,11.497c5.139,3.092,11.08,3.057,12.968-0.085l0,0c1.888-3.142-0.861-8.407-6.002-11.5
					C2066.467,1428.464,2063.721,1427.715,2061.36,1427.715z M2078.131,1443.367h0.058H2078.131z"/>
			</g>
			<g>
				<path style="fill:#CCCCCC;" d="M2121.213,1482.267c-3.774,0-7.759-1.16-11.362-3.327c-8.862-5.333-12.61-14.832-8.525-21.625
					c2.044-3.4,5.835-5.547,10.398-5.888c4.164-0.314,8.668,0.852,12.7,3.277c4.029,2.425,7.171,5.861,8.848,9.682
					c1.839,4.19,1.718,8.545-0.326,11.946l0,0c-2.044,3.397-5.835,5.544-10.398,5.885
					C2122.109,1482.25,2121.662,1482.267,2121.213,1482.267z M2113.049,1458.76c-0.261,0-0.52,0.009-0.775,0.026
					c-1.259,0.094-3.535,0.523-4.622,2.332c-1.856,3.083,0.951,8.458,6.005,11.496c2.693,1.621,5.727,2.447,8.343,2.244
					c1.26-0.094,3.536-0.523,4.623-2.332l0,0c1.089-1.809,0.399-4.021-0.109-5.178c-1.051-2.396-3.198-4.698-5.894-6.319
					C2118.191,1459.568,2115.475,1458.76,2113.049,1458.76z"/>
			</g>
		</g>
		<g>
			<g>
				<path style="fill:#CCCCCC;" d="M2355.853,1283.868c-0.561,0-1.125-0.126-1.647-0.384c-1.336-0.667-2.138-2.073-2.032-3.565
					l2.023-28.599c-14.24-0.696-28.367-11.699-34.061-27.151c-3.53-9.573-8.254-34.244,24.018-56.485
					c23.812-16.406,68.713-42.325,101.934-31.444c14.374,4.704,24.667,15.722,30.59,32.745c4.51,12.965,3.85,24.891-1.964,35.445
					c-9.849,17.88-34.399,31.565-72.985,40.68l-43.452,37.853C2357.591,1283.56,2356.725,1283.868,2355.853,1283.868z
					 M2358.164,1243.846c0.954,0,1.876,0.367,2.566,1.036c0.784,0.761,1.193,1.824,1.113,2.913l-1.68,23.736l37.409-32.587
					c0.452-0.396,0.998-0.675,1.586-0.813c36.974-8.619,60.22-21.155,69.092-37.262c4.827-8.766,5.306-18.404,1.456-29.46
					c-5.124-14.733-13.845-24.209-25.915-28.158c-22.06-7.218-56.84,3.906-95.45,30.51c-19.725,13.594-27.483,31.037-21.284,47.854
					c5.063,13.734,18.556,23.507,30.728,22.247C2357.911,1243.851,2358.037,1243.846,2358.164,1243.846z"/>
			</g>
			<g>
				<path style="fill:#CCCCCC;" d="M2366.55,1216.82c-5.979,0-11.103-2.669-13.25-7.5c-1.612-3.624-1.19-7.964,1.159-11.902
					c2.135-3.583,5.674-6.604,9.961-8.507c9.45-4.205,19.375-1.818,22.597,5.429l0,0c1.612,3.627,1.198,7.961-1.136,11.887
					c-2.126,3.583-5.674,6.61-9.981,8.522C2372.747,1216.151,2369.543,1216.82,2366.55,1216.82z M2373.809,1194.23
					c-1.997,0-4.226,0.461-6.393,1.424c-2.863,1.271-5.277,3.292-6.619,5.544c-0.649,1.089-1.609,3.201-0.755,5.127
					c1.465,3.292,7.476,4.076,12.862,1.683c2.881-1.28,5.298-3.301,6.634-5.547c0.643-1.084,1.594-3.192,0.737-5.124
					C2379.374,1195.313,2376.863,1194.23,2373.809,1194.23z"/>
			</g>
			<g>
				<path style="fill:#CCCCCC;" d="M2421.675,1192.329c-1.262,0-2.502-0.117-3.697-0.355c-4.487-0.901-7.985-3.498-9.594-7.124
					c-1.612-3.624-1.193-7.958,1.148-11.893c2.132-3.583,5.673-6.608,9.972-8.516c4.299-1.911,8.915-2.502,13.006-1.691
					c4.487,0.902,7.984,3.497,9.594,7.124c3.218,7.244-1.668,16.21-11.121,20.409
					C2427.942,1191.636,2424.738,1192.329,2421.675,1192.329z M2428.832,1169.774c-2.035,0-4.25,0.484-6.332,1.409
					c-2.872,1.277-5.289,3.298-6.628,5.547c-0.646,1.087-1.6,3.198-0.746,5.124c0.858,1.929,3.066,2.634,4.305,2.884
					c2.549,0.502,5.682,0.079,8.557-1.198c5.389-2.396,8.833-7.382,7.374-10.671c-0.858-1.929-3.066-2.634-4.305-2.884
					C2430.353,1169.845,2429.607,1169.774,2428.832,1169.774z"/>
			</g>
		</g>
		<g>
			<g>
				<path style="fill:#CCCCCC;" d="M173.962,754.31c-0.928,0-1.841-0.352-2.543-1.016c-1.081-1.031-1.436-2.611-0.898-4.005
					l10.328-26.746c-13.411-4.846-23.686-19.508-24.597-35.949c-0.564-10.187,2.158-35.156,39.538-46.95
					c27.577-8.698,78.106-20.291,106.673-0.153c12.36,8.716,18.967,22.268,19.634,40.281c0.508,13.716-3.624,24.922-12.278,33.31
					c-14.662,14.201-42.134,20.083-81.713,17.475l-52.644,23.434C174.982,754.204,174.47,754.31,173.962,754.31z M259.234,635.791
					c-17.39,0-38.222,3.633-61.224,10.888c-22.847,7.21-35.38,21.607-34.39,39.506c0.811,14.612,10.845,27.912,22.844,30.281
					c1.072,0.212,1.991,0.884,2.516,1.842c0.529,0.954,0.605,2.091,0.212,3.11l-8.569,22.197l45.32-20.174
					c0.549-0.247,1.172-0.337,1.753-0.311c37.893,2.625,63.782-2.555,76.988-15.35c7.189-6.962,10.472-16.036,10.037-27.739
					c-0.576-15.587-6.131-27.201-16.509-34.519C289.002,639.03,275.652,635.791,259.234,635.791z"/>
			</g>
			<g>
				<path style="fill:#CCCCCC;" d="M209.386,694.131c-3.618,0-7.083-0.817-9.975-2.379c-4.035-2.179-6.619-5.685-7.095-9.623
					c-0.951-7.87,6.349-15.009,16.618-16.248c10.278-1.248,19.061,3.953,20.009,11.823c0.476,3.941-1.189,7.961-4.572,11.033
					c-3.086,2.798-7.365,4.651-12.048,5.215C211.339,694.073,210.355,694.131,209.386,694.131z M211.885,673.082
					c-0.678,0-1.368,0.041-2.065,0.123c-5.855,0.708-10.612,4.464-10.181,8.037c0.253,2.091,2.161,3.415,3.277,4.017
					c2.308,1.245,5.423,1.747,8.522,1.368c3.133-0.379,6.038-1.603,7.973-3.359c0.933-0.846,2.46-2.578,2.208-4.678
					C221.232,675.378,216.974,673.082,211.885,673.082z"/>
			</g>
			<g>
				<path style="fill:#CCCCCC;" d="M269.157,686.91c-8.93,0-16.145-4.919-17-12.008c-0.476-3.941,1.195-7.961,4.587-11.033
					c3.089-2.801,7.362-4.651,12.031-5.215c10.275-1.243,19.061,3.952,20.009,11.822c0.476,3.94-1.195,7.961-4.587,11.035
					c-3.089,2.799-7.362,4.649-12.031,5.212C271.148,686.848,270.14,686.91,269.157,686.91z M271.644,665.861
					c-0.652,0-1.315,0.038-1.982,0.117c-3.121,0.379-6.025,1.6-7.964,3.36c-0.936,0.849-2.469,2.584-2.217,4.678
					c0.434,3.577,5.952,6.087,11.799,5.386c3.121-0.379,6.022-1.601,7.964-3.359c0.937-0.849,2.469-2.584,2.217-4.678
					C281.076,668.196,276.706,665.861,271.644,665.861z"/>
			</g>
		</g>
		<g>
			<g>
				<path style="fill:#CCCCCC;" d="M1206.731,561.384c-19.343,0-42.974-12.019-70.354-35.802l-56.103-13.168
					c-1.454-0.34-2.561-1.524-2.799-2.998c-0.24-1.474,0.432-2.948,1.703-3.732l24.4-15.062c-7.75-11.966-7.068-29.856,2.146-43.502
					c5.712-8.457,22.991-26.693,59.879-13.488c27.228,9.746,74.483,31.072,85.055,64.378c4.576,14.419,1.642,29.207-8.719,43.954
					c-7.891,11.235-17.957,17.663-29.921,19.108C1210.296,561.281,1208.531,561.384,1206.731,561.384z M1090.655,507.273
					l48.298,11.335c0.588,0.138,1.131,0.417,1.586,0.814c28.59,24.981,52.347,36.519,70.597,34.325
					c9.935-1.201,18.037-6.44,24.767-16.022c8.965-12.765,11.565-25.375,7.723-37.479c-7.018-22.115-36.363-43.86-80.509-59.665
					c-22.544-8.073-41.244-4.191-51.275,10.668c-8.19,12.128-8.243,28.79-0.117,37.932c0.725,0.816,1.051,1.908,0.892,2.986
					c-0.159,1.081-0.784,2.032-1.712,2.605L1090.655,507.273z"/>
			</g>
			<g>
				<path style="fill:#CCCCCC;" d="M1157.118,490.082c-3.706,0-7.62-1.11-11.183-3.192c-8.927-5.224-12.788-14.677-8.789-21.519
					c4.005-6.845,14.128-8.117,23.064-2.896c4.07,2.382,7.259,5.785,8.977,9.579c1.885,4.164,1.815,8.516-0.188,11.94
					c-2.003,3.427-5.761,5.62-10.313,6.02C1158.166,490.059,1157.644,490.082,1157.118,490.082z M1148.99,466.689
					c-2.475,0-4.536,0.805-5.47,2.405c-1.818,3.107,1.054,8.446,6.143,11.426c2.719,1.589,5.788,2.358,8.377,2.144
					c1.257-0.112,3.521-0.57,4.587-2.394l0,0c1.069-1.826,0.358-4.026-0.161-5.174c-1.078-2.379-3.257-4.657-5.979-6.249
					C1154.017,467.403,1151.321,466.689,1148.99,466.689z"/>
			</g>
			<g>
				<path style="fill:#CCCCCC;" d="M1209.142,520.502c-3.709,0-7.62-1.107-11.177-3.189c-4.058-2.373-7.241-5.771-8.962-9.567
					c-1.891-4.17-1.826-8.525,0.176-11.949c2.003-3.427,5.767-5.618,10.325-6.014c4.182-0.367,8.68,0.749,12.738,3.121
					c8.93,5.221,12.789,14.671,8.79,21.516c0,0,0,0-0.003,0c-2.003,3.427-5.764,5.618-10.325,6.014
					C1210.188,520.481,1209.668,520.502,1209.142,520.502z M1201.052,497.094c-0.308,0-0.611,0.014-0.907,0.038
					c-1.26,0.112-3.53,0.567-4.593,2.388c-1.066,1.823-0.349,4.026,0.171,5.177c1.08,2.384,3.257,4.66,5.969,6.246
					c2.717,1.586,5.741,2.378,8.372,2.141c1.26-0.109,3.53-0.567,4.596-2.388l0,0c1.817-3.11-1.051-8.446-6.14-11.42
					C1206.115,497.87,1203.442,497.094,1201.052,497.094z M1217.846,512.558h0.058H1217.846z"/>
			</g>
		</g>
		<g>
			<g>
				<path style="fill:#CCCCCC;" d="M1647.414,581.297c-16.891,0.002-37.925-6.167-62.857-18.46l-57.609,1.53
					c-1.521,0.027-2.863-0.825-3.468-2.19c-0.608-1.363-0.332-2.96,0.699-4.041l19.769-20.77
					c-10.539-9.603-14.427-27.081-8.983-42.621c3.374-9.632,15.422-31.65,54.481-28.27c28.811,2.505,79.936,11.118,98.628,40.642
					c8.09,12.78,9.015,27.829,2.745,44.727c-4.775,12.871-12.877,21.645-24.08,26.085
					C1661.066,580.175,1654.618,581.297,1647.414,581.297z M1585.374,555.438c0.57,0,1.131,0.129,1.641,0.384
					c34.003,16.888,59.914,22.019,77.005,15.247c9.306-3.688,15.808-10.816,19.881-21.793c5.427-14.624,4.731-27.48-2.062-38.213
					c-12.409-19.601-46.318-33.174-93.033-37.235c-23.848-2.076-40.95,6.443-46.876,23.357c-4.84,13.811-0.652,29.938,9.529,36.716
					c0.907,0.605,1.5,1.577,1.624,2.661c0.12,1.084-0.244,2.164-0.996,2.954l-16.406,17.237l49.595-1.315
					C1585.309,555.438,1585.341,555.438,1585.374,555.438z"/>
			</g>
			<g>
				<path style="fill:#CCCCCC;" d="M1590.392,523.882c-2.108,0-4.281-0.299-6.428-0.898c-4.519-1.26-8.457-3.735-11.091-6.971
					c-2.896-3.553-3.944-7.785-2.878-11.605c1.066-3.821,4.152-6.895,8.469-8.44c3.935-1.398,8.586-1.483,13.1-0.22
					c9.964,2.781,16.101,10.941,13.969,18.576c-1.066,3.824-4.143,6.901-8.443,8.443
					C1595.02,523.509,1592.748,523.882,1590.392,523.882z M1585.168,502.239c-1.512,0-2.954,0.225-4.219,0.678
					c-1.193,0.426-3.281,1.445-3.847,3.474c-0.567,2.029,0.693,3.979,1.492,4.963c1.656,2.032,4.337,3.679,7.356,4.522
					c3.036,0.849,6.187,0.834,8.648-0.055c1.187-0.426,3.26-1.445,3.829-3.483l0,0c0.984-3.527-3.068-7.87-8.848-9.485
					C1588.108,502.441,1586.607,502.239,1585.168,502.239z"/>
			</g>
			<g>
				<path style="fill:#CCCCCC;" d="M1648.433,540.077c-2.105,0-4.272-0.297-6.413-0.896c-4.528-1.262-8.471-3.738-11.103-6.974
					c-2.887-3.551-3.93-7.779-2.863-11.602c2.129-7.635,11.611-11.447,21.566-8.66c4.531,1.263,8.475,3.741,11.106,6.978
					c2.89,3.55,3.932,7.779,2.866,11.599c-1.066,3.82-4.15,6.898-8.458,8.443C1653.064,539.703,1650.788,540.077,1648.433,540.077z
					 M1643.277,518.449c-4.014,0-7.4,1.571-8.117,4.14c-0.567,2.032,0.687,3.982,1.483,4.963c1.65,2.029,4.334,3.677,7.359,4.523
					c3.03,0.843,6.185,0.819,8.645-0.059c1.19-0.426,3.272-1.445,3.838-3.48l0,0c0.567-2.029-0.687-3.979-1.483-4.96
					c-1.653-2.029-4.337-3.679-7.365-4.525C1646.166,518.64,1644.68,518.449,1643.277,518.449z"/>
			</g>
		</g>
		<g>
			<g>
				<path style="fill:#CCCCCC;" d="M613.524,649.572c-0.408,0-0.816-0.067-1.216-0.209c-1.41-0.49-2.385-1.785-2.467-3.277
					l-1.606-28.626c-14.213,1.066-29.618-8.025-37.218-22.632c-4.71-9.054-12.509-32.928,16.694-59.063
					c21.554-19.291,62.828-50.673,97.147-44.069c14.854,2.851,26.453,12.48,34.478,28.62c6.111,12.29,6.963,24.203,2.529,35.406
					c-7.509,18.982-30.141,35.659-67.265,49.575l-38.322,43.038C615.567,649.134,614.557,649.572,613.524,649.572z M611.691,609.517
					c0.79,0,1.569,0.253,2.211,0.734c0.872,0.655,1.413,1.659,1.474,2.748l1.33,23.757l32.992-37.05
					c0.399-0.449,0.904-0.793,1.469-1.004c35.594-13.22,57.072-28.596,63.838-45.693c3.682-9.305,2.937-18.926-2.276-29.409
					c-6.945-13.967-16.791-22.262-29.263-24.655c-22.794-4.387-55.892,11.05-90.833,42.319
					c-17.852,15.975-23.343,34.258-15.071,50.16c6.754,12.977,21.387,20.958,33.289,18.189
					C611.131,609.547,611.412,609.517,611.691,609.517z"/>
			</g>
			<g>
				<path style="fill:#CCCCCC;" d="M613.717,581.834c-4.957,0-9.312-2.026-11.676-5.923c-4.105-6.781-0.393-16.292,8.455-21.654
					c8.845-5.354,18.997-4.244,23.105,2.537l0,0c2.056,3.395,2.19,7.744,0.373,11.934c-1.659,3.824-4.796,7.274-8.827,9.717
					C621.385,580.724,617.385,581.834,613.717,581.834z M621.978,558.254c-2.355,0-5.107,0.772-7.659,2.317
					c-5.042,3.054-7.831,8.437-5.964,11.517c1.862,3.08,7.929,3.101,12.968,0.044c2.698-1.633,4.839-3.943,5.882-6.34
					c0.502-1.156,1.18-3.365,0.082-5.174l0,0C626.333,559.041,624.36,558.254,621.978,558.254z"/>
			</g>
			<g>
				<path style="fill:#CCCCCC;" d="M665.289,550.581c-0.429,0-0.855-0.015-1.274-0.047c-4.566-0.326-8.363-2.458-10.419-5.855
					c-2.056-3.389-2.188-7.744-0.365-11.94c1.665-3.823,4.796-7.27,8.819-9.708c4.023-2.435,8.527-3.601,12.685-3.319
					c4.563,0.326,8.361,2.458,10.419,5.853l0,0c4.106,6.78,0.394,16.292-8.454,21.654
					C673.086,549.406,669.08,550.581,665.289,550.581z M673.509,527.065c-2.37,0-5.127,0.758-7.635,2.279
					c-2.69,1.627-4.83,3.938-5.873,6.337c-0.505,1.16-1.186,3.371-0.091,5.177c1.092,1.806,3.368,2.226,4.631,2.317
					c2.584,0.176,5.65-0.641,8.337-2.27c5.042-3.055,7.829-8.437,5.964-11.518C677.905,527.84,675.905,527.065,673.509,527.065z"/>
			</g>
		</g>
		<g>
			<g>
				<path style="fill:#CCCCCC;" d="M1706.087,1350.962c-0.259,0-0.517-0.029-0.778-0.085c-1.46-0.314-2.584-1.477-2.851-2.948
					l-5.122-28.211c-13.954,2.854-30.379-4.311-39.72-17.872c-5.788-8.405-16.471-31.136,9.294-60.675
					c19.011-21.792,56.206-57.912,90.975-55.694c15.094,1.001,27.792,9.13,37.743,24.156c7.579,11.444,9.891,23.161,6.872,34.828
					c-5.116,19.76-25.516,39.094-60.646,57.48l-32.73,47.429C1708.427,1350.378,1707.282,1350.962,1706.087,1350.962z
					 M1700.243,1311.381c0.634,0,1.265,0.161,1.829,0.484c0.948,0.541,1.606,1.472,1.8,2.546l4.249,23.413l28.179-40.829
					c0.34-0.497,0.802-0.899,1.336-1.177c33.691-17.505,53.11-35.406,57.718-53.208c2.508-9.687,0.585-19.14-5.882-28.902
					c-8.61-13.006-19.402-20.027-32.076-20.867c-23.155-1.583-54.106,17.849-84.925,53.181
					c-15.749,18.054-18.95,36.874-8.778,51.636c8.302,12.052,23.786,18.174,35.274,13.949
					C1699.379,1311.454,1699.811,1311.381,1700.243,1311.381z"/>
			</g>
			<g>
				<path style="fill:#CCCCCC;" d="M1696.264,1283.792c-4.211,0-7.891-1.63-10.187-4.543c-2.458-3.113-3.124-7.418-1.823-11.817
					c1.181-3.999,3.859-7.802,7.544-10.709c3.7-2.922,8.031-4.652,12.192-4.866c4.599-0.206,8.593,1.418,11.048,4.534
					c2.457,3.116,3.13,7.415,1.841,11.799c-1.177,3.997-3.862,7.809-7.565,10.727c-3.682,2.907-8.002,4.631-12.169,4.851
					C1696.848,1283.783,1696.555,1283.792,1696.264,1283.792z M1704.847,1259.215c-0.17,0-0.332,0.003-0.476,0.012
					c-2.611,0.135-5.526,1.333-8.002,3.286c-2.461,1.941-4.299,4.495-5.039,7.009c-0.361,1.215-0.767,3.5,0.537,5.153
					c1.307,1.656,3.641,1.789,4.886,1.721c2.617-0.138,5.529-1.33,7.99-3.272c2.476-1.953,4.317-4.51,5.054-7.018
					c0.355-1.209,0.757-3.486-0.552-5.147C1708.087,1259.494,1706.151,1259.215,1704.847,1259.215z"/>
			</g>
			<g>
				<path style="fill:#CCCCCC;" d="M1743.583,1246.456c-4.214,0-7.893-1.632-10.193-4.548c-4.913-6.223-2.399-16.119,5.724-22.526
					c8.117-6.413,18.324-6.555,23.24-0.335c0,0,0,0,0,0.003c4.913,6.223,2.4,16.119-5.723,22.526
					c-3.691,2.916-8.017,4.64-12.181,4.857C1744.159,1246.451,1743.868,1246.456,1743.583,1246.456z M1752.226,1221.895
					c-2.628,0-5.823,1.133-8.542,3.277c-4.628,3.653-6.73,9.338-4.502,12.166c1.31,1.656,3.621,1.812,4.883,1.727
					c2.614-0.138,5.527-1.333,7.993-3.28c4.631-3.653,6.733-9.338,4.505-12.166
					C1755.641,1222.456,1754.073,1221.895,1752.226,1221.895z"/>
			</g>
		</g>
		<g>
			<g>
				<path style="fill:#CCCCCC;" d="M1631.839,963.793c-0.94,0-1.868-0.362-2.573-1.046c-1.069-1.039-1.407-2.625-0.855-4.011
					l10.616-26.635c-13.359-4.989-23.475-19.76-24.209-36.214c-0.455-10.193,2.537-35.133,40.04-46.521
					c27.665-8.408,78.324-19.455,106.664,0.995c12.269,8.848,18.73,22.47,19.202,40.487c0.362,13.722-3.891,24.884-12.633,33.177
					c-14.814,14.042-42.378,19.628-81.892,16.594l-52.896,22.867C1632.831,963.693,1632.332,963.793,1631.839,963.793z
					 M1716.975,846.189c-17.111,0-37.494,3.412-59.973,10.237c-22.923,6.962-35.612,21.225-34.813,39.133
					c0.652,14.621,10.545,28.029,22.52,30.528c1.066,0.223,1.979,0.904,2.496,1.865c0.517,0.961,0.582,2.1,0.176,3.113
					l-8.809,22.106l45.537-19.686c0.555-0.241,1.159-0.332,1.759-0.294c37.855,3.025,63.805-1.868,77.143-14.522
					c7.265-6.886,10.645-15.922,10.337-27.627c-0.408-15.593-5.841-27.266-16.142-34.696
					C1747.818,849.575,1734.019,846.189,1716.975,846.189z"/>
			</g>
			<g>
				<path style="fill:#CCCCCC;" d="M1668.123,903.998c-3.709,0-7.26-0.855-10.205-2.484c-4.008-2.223-6.557-5.758-6.992-9.702
					c-0.866-7.879,6.51-14.935,16.794-16.069c10.281-1.133,19.02,4.161,19.883,12.04l0,0c0.435,3.943-1.277,7.949-4.695,10.98
					c-3.116,2.769-7.412,4.575-12.099,5.089C1669.908,903.951,1669.013,903.998,1668.123,903.998z M1670.408,882.975
					c-0.617,0-1.245,0.032-1.882,0.103c-5.861,0.646-10.657,4.349-10.264,7.928c0.229,2.094,2.124,3.436,3.233,4.05
					c2.294,1.274,5.398,1.791,8.507,1.459c3.136-0.343,6.055-1.535,8.008-3.271c0.943-0.837,2.49-2.555,2.258-4.657l0,0
					C1679.91,885.336,1675.582,882.975,1670.408,882.975z"/>
			</g>
			<g>
				<path style="fill:#CCCCCC;" d="M1728.026,897.417c-3.715,0-7.265-0.857-10.205-2.487c-4.002-2.223-6.545-5.759-6.98-9.703
					c-0.866-7.879,6.51-14.938,16.794-16.069c10.293-1.122,19.017,4.164,19.883,12.04l0,0c0.435,3.943-1.283,7.946-4.707,10.982
					c-3.121,2.766-7.415,4.573-12.089,5.086C1729.817,897.367,1728.919,897.417,1728.026,897.417z M1730.246,876.394
					c-0.597,0-1.199,0.032-1.806,0.1c-5.861,0.646-10.657,4.349-10.264,7.929c0.229,2.097,2.118,3.439,3.225,4.052
					c2.287,1.271,5.394,1.789,8.513,1.457c3.127-0.343,6.044-1.536,8.002-3.271c0.945-0.837,2.496-2.558,2.267-4.658l0,0
					C1739.831,878.796,1735.385,876.394,1730.246,876.394z"/>
			</g>
		</g>
		<g>
			<g>
				<path style="fill:#CCCCCC;" d="M1384.496,255.847c-0.884,0-1.759-0.317-2.449-0.928c-1.119-0.992-1.527-2.561-1.037-3.97
					l9.409-27.087c-13.567-4.385-24.338-18.692-25.809-35.092c-0.911-10.163,0.96-35.209,37.911-48.268
					c27.269-9.634,77.375-22.94,106.606-3.791c12.654,8.29,19.716,21.61,20.996,39.588c0.978,13.69-2.769,25.034-11.133,33.708
					c-14.168,14.695-41.493,21.516-81.064,20.247l-51.815,25.222C1385.597,255.727,1385.045,255.847,1384.496,255.847z
					 M1469.859,134.418c-18.181,0-40.339,4.372-64.877,13.044c-22.585,7.982-34.622,22.797-33.021,40.648
					c1.306,14.577,11.79,27.531,23.865,29.492c1.078,0.173,2.021,0.817,2.578,1.751c0.558,0.936,0.675,2.073,0.318,3.101
					l-7.809,22.479l44.606-21.713c0.546-0.264,1.14-0.37,1.745-0.37c37.937,1.292,63.65-4.728,76.415-17.966
					c6.945-7.204,9.917-16.383,9.086-28.062c-1.11-15.558-7.057-26.979-17.681-33.938
					C1496.449,137.228,1484.432,134.418,1469.859,134.418z"/>
			</g>
			<g>
				<path style="fill:#CCCCCC;" d="M1417.077,194.518c-8.551,0-15.514-4.596-16.577-11.435c-1.219-7.835,5.835-15.217,16.057-16.809
					c10.213-1.572,19.181,3.307,20.4,11.138c0.003,0,0.003,0,0.003,0c1.215,7.835-5.838,15.217-16.057,16.806
					C1419.602,194.418,1418.322,194.518,1417.077,194.518z M1420.319,173.363c-0.854,0-1.736,0.064-2.628,0.206
					c-5.826,0.904-10.454,4.822-9.899,8.381c0.554,3.553,6.134,5.885,11.978,4.975c5.926-0.92,10.46-4.758,9.896-8.378l0,0
					C1429.187,175.471,1425.158,173.363,1420.319,173.363z"/>
			</g>
			<g>
				<path style="fill:#CCCCCC;" d="M1476.639,185.249c-8.551,0-15.517-4.592-16.58-11.428c-1.219-7.838,5.835-15.22,16.054-16.812
					c10.216-1.574,19.185,3.304,20.403,11.139c0.003,0,0.003,0,0.003,0c1.215,7.835-5.838,15.214-16.06,16.806
					C1479.162,185.153,1477.881,185.249,1476.639,185.249z M1479.784,164.106c-0.831,0-1.683,0.062-2.537,0.197
					c-5.826,0.904-10.451,4.822-9.896,8.381c0.555,3.556,6.14,5.897,11.975,4.974c5.826-0.904,10.454-4.821,9.899-8.378
					C1488.752,166.244,1484.609,164.106,1479.784,164.106z"/>
			</g>
		</g>
		<g>
			<g>
				<path style="fill:#CCCCCC;" d="M1867.771,299.902c-0.652,0-1.304-0.17-1.888-0.52c-1.283-0.764-1.979-2.226-1.762-3.706
					l4.164-28.367c-14.148-1.762-27.407-13.793-31.929-29.63c-2.798-9.811-5.659-34.765,28.191-54.52
					c24.978-14.58,71.705-37.027,104.004-23.713c13.981,5.77,23.416,17.529,28.044,34.948c3.527,13.267,1.976,25.108-4.613,35.197
					c-11.162,17.091-36.669,28.896-75.834,35.092l-46.169,34.486C1869.327,299.655,1868.548,299.902,1867.771,299.902z
					 M1872.525,260.144c1.051,0,2.056,0.449,2.757,1.236c0.725,0.817,1.051,1.909,0.893,2.99l-3.456,23.543l39.746-29.689
					c0.485-0.358,1.048-0.596,1.641-0.69c37.521-5.823,61.642-16.58,71.696-31.976c5.471-8.378,6.669-17.951,3.662-29.266
					c-4.005-15.077-11.99-25.178-23.73-30.023c-21.454-8.848-56.975-0.37-97.47,23.264c-20.688,12.075-29.733,28.887-24.811,46.124
					c4.017,14.072,16.695,24.852,28.969,24.488C1872.457,260.144,1872.49,260.144,1872.525,260.144z"/>
			</g>
			<g>
				<path style="fill:#CCCCCC;" d="M1884.809,233.87c-1.806,0-3.565-0.229-5.218-0.69c-4.417-1.233-7.714-4.082-9.048-7.817
					c-2.664-7.468,2.878-16.043,12.618-19.519c9.744-3.492,19.464-0.355,22.13,7.109l0,0c1.336,3.741,0.596,8.028-2.026,11.773
					c-2.391,3.412-6.152,6.164-10.595,7.747C1890.071,233.404,1887.392,233.87,1884.809,233.87z M1891.104,211.817
					c-1.727,0-3.603,0.311-5.462,0.975c-5.55,1.985-9.362,6.698-8.151,10.09c0.71,1.982,2.863,2.851,4.085,3.192
					c2.519,0.702,5.662,0.502,8.613-0.549c2.972-1.06,5.535-2.895,7.036-5.036c0.722-1.031,1.829-3.06,1.119-5.051
					C1897.515,213.12,1894.625,211.817,1891.104,211.817z"/>
			</g>
			<g>
				<path style="fill:#CCCCCC;" d="M1941.51,213.626c-6.652,0-12.272-3.127-14.201-8.528c-2.667-7.468,2.878-16.042,12.618-19.522
					c4.431-1.582,9.08-1.838,13.097-0.707c4.408,1.233,7.7,4.085,9.033,7.823c1.333,3.735,0.59,8.026-2.038,11.773
					c-2.396,3.412-6.152,6.164-10.583,7.744C1946.743,213.17,1944.053,213.626,1941.51,213.626z M1947.818,191.558
					c-1.75,0-3.612,0.326-5.409,0.966c-5.553,1.985-9.362,6.701-8.152,10.09c1.213,3.391,7.142,4.625,12.7,2.645
					c2.957-1.057,5.518-2.893,7.021-5.036c0.725-1.034,1.836-3.066,1.128-5.051c0-0.002,0-0.002-0.003-0.002
					c-0.707-1.988-2.854-2.857-4.07-3.198C1950.041,191.695,1948.952,191.558,1947.818,191.558z"/>
			</g>
		</g>
		<g>
			<g>
				<path style="fill:#CCCCCC;" d="M502.014,269.629c-0.875,0-1.741-0.311-2.428-0.91c-1.125-0.983-1.544-2.549-1.066-3.964
					l9.212-27.152c-13.599-4.287-24.474-18.512-26.065-34.904c-0.984-10.155,0.705-35.215,37.561-48.544
					c27.193-9.831,77.205-23.501,106.576-4.566c12.709,8.195,19.872,21.463,21.284,39.432c1.075,13.684-2.587,25.052-10.889,33.788
					c-14.063,14.8-41.288,21.798-80.917,20.84l-51.63,25.598C503.132,269.505,502.572,269.629,502.014,269.629z M587.338,147.577
					c-18.333,0-40.757,4.534-65.603,13.52c-22.526,8.146-34.455,23.049-32.722,40.891c1.412,14.566,11.987,27.442,24.077,29.313
					c1.078,0.167,2.026,0.802,2.59,1.735c0.567,0.931,0.69,2.065,0.34,3.099l-7.644,22.532l44.448-22.036
					c0.541-0.267,1.157-0.376,1.739-0.382c38.005,1.06,63.62-5.194,76.286-18.524c6.894-7.256,9.799-16.456,8.88-28.129
					c-1.221-15.549-7.25-26.926-17.924-33.806C613.292,150.299,601.542,147.577,587.338,147.577z"/>
			</g>
			<g>
				<path style="fill:#CCCCCC;" d="M534.081,208.055c-3.262,0-6.39-0.675-9.076-1.985c-4.12-2.009-6.851-5.407-7.489-9.321
					c-1.277-7.823,5.721-15.256,15.934-16.923c10.213-1.677,19.205,3.16,20.482,10.985l0,0c1.271,7.826-5.726,15.259-15.934,16.924
					C536.686,207.949,535.373,208.055,534.081,208.055z M537.39,186.882c-0.896,0-1.817,0.073-2.754,0.226
					c-5.82,0.951-10.416,4.902-9.837,8.455c0.34,2.076,2.302,3.318,3.441,3.876c2.358,1.145,5.477,1.516,8.572,1.013
					c5.92-0.966,10.425-4.839,9.838-8.455C546.151,188.953,542.171,186.882,537.39,186.882z"/>
			</g>
			<g>
				<path style="fill:#CCCCCC;" d="M593.493,198.364c-8.472,0-15.382-4.528-16.489-11.314c-0.64-3.915,0.867-8.002,4.126-11.215
					c2.972-2.925,7.165-4.951,11.808-5.709c10.196-1.656,19.205,3.157,20.482,10.986l0,0c0.641,3.914-0.866,8.002-4.126,11.214
					c-2.972,2.925-7.165,4.951-11.808,5.709C596.13,198.255,594.794,198.364,593.493,198.364z M596.779,177.195
					c-0.869,0-1.759,0.067-2.655,0.214c-3.101,0.505-5.952,1.85-7.817,3.685c-0.898,0.887-2.361,2.684-2.02,4.769
					c0.579,3.556,6.196,5.844,12.013,4.889c3.101-0.505,5.953-1.85,7.817-3.685c0.899-0.887,2.361-2.684,2.021-4.769
					C605.648,179.291,601.552,177.195,596.779,177.195z"/>
			</g>
		</g>
		<g>
			<g>
				<path style="fill:#CCCCCC;" d="M2305.94,900.965c-1.119,0-2.197-0.511-2.907-1.421c-0.919-1.178-1.04-2.793-0.302-4.091
					l14.148-24.94c-12.551-6.763-20.559-22.776-19.041-39.174c0.94-10.16,7.303-34.458,46.01-40.627
					c28.558-4.549,80.244-8.581,105.534,15.534c10.948,10.439,15.487,24.816,13.5,42.729c-1.515,13.643-7.247,24.121-17.041,31.143
					c-16.589,11.893-44.639,13.663-83.389,5.271l-55.522,15.44C2306.6,900.921,2306.269,900.965,2305.94,900.965z M2384.164,794.655
					c-11.943,0-25.081,1.101-39.153,3.345c-23.66,3.77-38.176,16.169-39.826,34.017c-1.348,14.571,6.622,29.204,18.142,33.315
					c1.028,0.364,1.839,1.165,2.22,2.187c0.379,1.022,0.288,2.158-0.25,3.107l-11.743,20.7l47.798-13.293
					c0.579-0.159,1.193-0.179,1.783-0.047c37.086,8.146,63.462,6.842,78.406-3.868c8.132-5.829,12.712-14.321,14.004-25.959
					c1.721-15.502-2.064-27.806-11.256-36.571C2432.602,800.44,2411.515,794.655,2384.164,794.655z"/>
			</g>
			<g>
				<path style="fill:#CCCCCC;" d="M2352.91,846.873c-0.232,0-0.461-0.002-0.693-0.008c-4.687-0.126-9.11-1.574-12.448-4.076
					c-3.671-2.745-5.715-6.595-5.606-10.56c0.215-7.923,8.607-13.811,18.829-13.631c10.343,0.284,18.271,6.716,18.054,14.639l0,0
					c-0.109,3.967-2.35,7.699-6.146,10.24C2361.605,845.678,2357.371,846.873,2352.91,846.873z M2352.343,825.968
					c-5.712,0-10.707,2.954-10.804,6.46c-0.059,2.106,1.636,3.694,2.652,4.455c2.097,1.571,5.098,2.52,8.229,2.605
					c3.136,0.05,6.208-0.696,8.378-2.149c1.048-0.699,2.813-2.191,2.872-4.302c0.1-3.662-4.88-6.898-10.88-7.063
					C2352.64,825.971,2352.49,825.968,2352.343,825.968z M2367.358,833.136h0.059H2367.358z"/>
			</g>
			<g>
				<path style="fill:#CCCCCC;" d="M2413.174,848.524c-0.235,0-0.467-0.003-0.702-0.009c-4.701-0.129-9.129-1.577-12.465-4.076
					c-3.662-2.746-5.7-6.596-5.591-10.56c0.217-7.929,8.557-13.981,18.829-13.632c4.701,0.129,9.129,1.577,12.462,4.079
					c3.662,2.746,5.7,6.596,5.591,10.56l0,0C2431.087,842.633,2423.182,848.524,2413.174,848.524z M2412.593,827.618
					c-5.711,0-10.704,2.954-10.801,6.46c-0.059,2.108,1.63,3.697,2.639,4.455c2.097,1.568,5.098,2.52,8.24,2.605
					c5.982,0.05,11.15-2.851,11.25-6.451l3.688,0.1l-3.688-0.1c0.059-2.112-1.629-3.7-2.639-4.458
					c-2.094-1.568-5.095-2.52-8.237-2.605C2412.892,827.621,2412.743,827.618,2412.593,827.618z"/>
			</g>
		</g>
		<g>
			<g>
				<path style="fill:#CCCCCC;" d="M935.746,287.439c-0.461,0-0.925-0.088-1.368-0.264c-1.389-0.555-2.305-1.891-2.32-3.386
					l-0.331-28.67c-14.26,0.488-29.228-9.335-36.173-24.267c-4.302-9.253-11.03-33.453,19.311-58.264
					c22.388-18.307,65.027-47.816,99.009-39.693c14.715,3.512,25.874,13.646,33.171,30.126c5.559,12.551,5.879,24.49,0.948,35.485
					c-8.349,18.63-31.7,34.281-69.402,46.53l-40.202,41.288C937.681,287.048,936.721,287.439,935.746,287.439z M935.37,247.334
					c0.846,0,1.677,0.29,2.341,0.837c0.842,0.69,1.336,1.718,1.348,2.81l0.273,23.792l34.61-35.544
					c0.42-0.431,0.94-0.752,1.513-0.936c36.143-11.623,58.285-26.024,65.805-42.803c4.093-9.133,3.779-18.776-0.964-29.48
					c-6.314-14.263-15.781-22.99-28.135-25.939c-22.582-5.386-56.332,8.548-92.628,38.231
					c-18.541,15.165-24.843,33.183-17.287,49.437c6.17,13.273,20.444,21.918,32.446,19.657
					C934.918,247.355,935.144,247.334,935.37,247.334z"/>
			</g>
			<g>
				<path style="fill:#CCCCCC;" d="M939.649,219.76c-0.708,0-1.41-0.038-2.1-0.117c-4.555-0.529-8.257-2.825-10.157-6.308
					c-3.8-6.954,0.331-16.289,9.408-21.252c4.141-2.264,8.684-3.245,12.836-2.754c4.537,0.531,8.232,2.831,10.134,6.314l0,0
					c1.903,3.483,1.844,7.835-0.159,11.94c-1.829,3.744-5.113,7.054-9.253,9.315C946.928,218.771,943.196,219.76,939.649,219.76z
					 M947.542,196.588c-2.303,0-4.863,0.69-7.204,1.97c-5.172,2.828-8.196,8.082-6.469,11.238c1.007,1.85,3.272,2.37,4.528,2.514
					c2.599,0.29,5.671-0.388,8.422-1.888c2.769-1.516,5.013-3.726,6.158-6.076c0.554-1.131,1.33-3.309,0.314-5.163
					c0-0.003,0-0.003,0-0.003c-1.013-1.855-3.263-2.379-4.514-2.525C948.376,196.608,947.962,196.588,947.542,196.588z"/>
			</g>
			<g>
				<path style="fill:#CCCCCC;" d="M992.536,190.864c-0.711,0-1.413-0.041-2.105-0.12c-4.546-0.529-8.246-2.831-10.146-6.314
					c-1.903-3.48-1.841-7.835,0.17-11.946c1.832-3.744,5.113-7.051,9.241-9.306c4.129-2.252,8.695-3.213,12.821-2.748
					c4.546,0.529,8.246,2.831,10.149,6.314l0,0c3.797,6.956-0.338,16.292-9.415,21.252
					C999.813,189.872,996.081,190.864,992.536,190.864z M1000.43,167.689c-2.305,0-4.863,0.693-7.198,1.968
					c-2.757,1.507-4.998,3.717-6.146,6.069c-0.555,1.134-1.336,3.316-0.323,5.165c1.01,1.856,3.266,2.376,4.523,2.523
					c2.584,0.305,5.671-0.394,8.431-1.897c5.172-2.825,8.199-8.078,6.472-11.238c-1.01-1.853-3.268-2.373-4.522-2.52
					C1001.264,167.712,1000.849,167.689,1000.43,167.689z"/>
			</g>
		</g>
		<g>
			<g>
				<path style="fill:#CCCCCC;" d="M189.145,1599.216c-0.276,0-0.552-0.032-0.828-0.097c-1.457-0.335-2.567-1.516-2.81-2.99
					l-4.713-28.285c-14.007,2.646-30.314-4.754-39.459-18.445c-5.666-8.486-16.018-31.371,10.17-60.531
					c19.323-21.52,56.925-57.202,91.773-54.376c15.077,1.218,27.654,9.529,37.388,24.699c7.412,11.549,9.556,23.298,6.366,34.918
					c-5.4,19.687-26.076,38.725-61.468,56.6l-33.412,46.952C191.45,1598.649,190.322,1599.216,189.145,1599.216z M183.768,1559.552
					c0.652,0,1.301,0.173,1.876,0.511c0.94,0.555,1.583,1.495,1.762,2.572l3.911,23.472l28.764-40.422
					c0.349-0.49,0.813-0.886,1.354-1.157c33.94-17.017,53.615-34.636,58.481-52.367c2.649-9.653,0.861-19.131-5.462-28.984
					c-8.425-13.129-19.114-20.307-31.773-21.331c-23.122-1.814-54.356,17.061-85.686,51.954
					c-16.007,17.822-19.478,36.595-9.523,51.505c8.125,12.169,23.536,18.503,35.071,14.457
					C182.939,1559.619,183.354,1559.552,183.768,1559.552z"/>
			</g>
			<g>
				<path style="fill:#CCCCCC;" d="M180.473,1531.939c-4.185,0-7.943-1.574-10.354-4.722c-2.414-3.148-3.016-7.465-1.653-11.843
					c1.239-3.982,3.976-7.747,7.699-10.601c8.211-6.284,18.421-6.29,23.243,0.006c0,0,0,0,0.003,0
					c4.819,6.293,2.161,16.151-6.05,22.444C189.256,1530.369,184.655,1531.939,180.473,1531.939z M189.095,1507.434
					c-2.581,0-5.7,1.098-8.443,3.198c-2.487,1.906-4.361,4.434-5.138,6.936c-0.379,1.21-0.82,3.492,0.461,5.162
					c2.194,2.854,8.219,2.22,12.9-1.365c4.763-3.648,6.904-9.188,4.675-12.099C192.603,1508.033,190.995,1507.434,189.095,1507.434z
					"/>
			</g>
			<g>
				<path style="fill:#CCCCCC;" d="M228.33,1495.262c-4.311,0-8.064-1.695-10.363-4.699c-2.411-3.148-3.016-7.462-1.659-11.831
					c1.236-3.982,3.973-7.75,7.708-10.609c3.732-2.86,8.084-4.522,12.248-4.681c4.584-0.12,8.584,1.539,10.994,4.687
					c2.411,3.148,3.016,7.462,1.659,11.831c-1.236,3.982-3.973,7.75-7.708,10.61c-3.732,2.86-8.085,4.522-12.251,4.681
					C228.75,1495.256,228.538,1495.262,228.33,1495.262z M236.896,1470.809c-0.126,0-0.243,0.003-0.352,0.009
					c-2.614,0.097-5.544,1.251-8.04,3.16c-2.496,1.914-4.373,4.443-5.148,6.942c-0.376,1.207-0.813,3.483,0.47,5.156
					c1.283,1.674,3.576,1.87,4.857,1.797c2.613-0.097,5.544-1.251,8.04-3.16c2.496-1.914,4.372-4.443,5.147-6.942
					c0.376-1.206,0.814-3.483-0.47-5.156c0,0,0,0-0.003,0C240.226,1471.085,238.2,1470.809,236.896,1470.809z"/>
			</g>
		</g>
		<g>
			<g>
				<path style="fill:#CCCCCC;" d="M1953.682,690.097c-0.839,0-1.674-0.285-2.352-0.846c-1.151-0.951-1.615-2.503-1.175-3.93
					l8.452-27.401c-13.711-3.906-24.976-17.822-27.022-34.164c-1.266-10.125-0.276-35.221,36.198-49.569
					c26.914-10.586,76.527-25.648,106.403-7.529c12.936,7.841,20.465,20.902,22.374,38.827c1.457,13.65-1.888,25.117-9.943,34.079
					c-13.643,15.182-40.662,22.947-80.306,23.081l-50.899,27.022C1954.869,689.955,1954.273,690.097,1953.682,690.097z
					 M2038.657,565.675c-18.867,0-42.239,5.18-68.172,15.378c-22.295,8.771-33.803,24.001-31.577,41.788
					c1.817,14.521,12.747,27.098,24.884,28.631c1.08,0.138,2.047,0.746,2.637,1.662c0.59,0.916,0.746,2.047,0.426,3.086
					l-7.016,22.74l43.82-23.263c0.531-0.282,1.125-0.429,1.727-0.429c37.97-0.018,63.453-6.96,75.742-20.638
					c6.689-7.444,9.338-16.721,8.096-28.364c-1.656-15.511-8.002-26.714-18.861-33.297
					C2062.314,568.092,2051.534,565.675,2038.657,565.675z"/>
			</g>
			<g>
				<path style="fill:#CCCCCC;" d="M1983.477,627.662c-3.027,0-5.938-0.587-8.478-1.738c-4.176-1.894-6.997-5.215-7.744-9.112
					c-0.749-3.893,0.646-8.023,3.827-11.326c2.892-3.007,7.022-5.147,11.632-6.031c10.16-1.938,19.284,2.628,20.779,10.41v0.002
					c1.492,7.785-5.297,15.411-15.455,17.358C1986.507,627.518,1984.977,627.662,1983.477,627.662z M1987.303,606.393
					c-1.036,0-2.114,0.1-3.201,0.308c-3.08,0.59-5.885,2.012-7.702,3.9c-0.878,0.914-2.294,2.754-1.897,4.822
					c0.396,2.07,2.391,3.257,3.545,3.779c2.385,1.078,5.518,1.363,8.601,0.775c5.89-1.131,10.286-5.125,9.597-8.725
					C1995.681,608.322,1991.881,606.393,1987.303,606.393z"/>
			</g>
			<g>
				<path style="fill:#CCCCCC;" d="M2042.593,616.327c-8.172,0-14.879-4.287-16.142-10.863c-1.491-7.788,5.301-15.414,15.458-17.361
					c4.619-0.884,9.253-0.426,13.05,1.304c4.167,1.894,6.983,5.215,7.729,9.112c0.746,3.897-0.643,8.023-3.812,11.323
					c-2.89,3.007-7.024,5.151-11.646,6.035C2045.652,616.181,2044.099,616.324,2042.593,616.327z M2046.465,595.049
					c-1.039,0-2.105,0.1-3.165,0.303c-5.794,1.11-10.281,5.186-9.603,8.725c0.678,3.535,6.357,5.656,12.142,4.554
					c3.089-0.594,5.9-2.015,7.712-3.9c0.878-0.913,2.287-2.748,1.888-4.822v-0.003c-0.396-2.07-2.387-3.26-3.536-3.782
					C2050.339,595.413,2048.451,595.049,2046.465,595.049z"/>
			</g>
		</g>
		<g>
			<g>
				<path style="fill:#CCCCCC;" d="M1688.353,1639.996c-1.08,0-2.129-0.476-2.842-1.339c-0.951-1.148-1.116-2.76-0.417-4.079
					l13.426-25.337c-12.739-6.402-21.202-22.177-20.157-38.613c0.649-10.181,6.314-34.654,44.827-41.931
					c28.414-5.371,79.968-10.882,105.933,12.501c11.244,10.12,16.195,24.359,14.721,42.324
					c-1.122,13.681-6.551,24.318-16.139,31.618c-16.242,12.363-44.239,14.938-83.204,7.658l-55.057,17.029
					C1689.084,1639.94,1688.717,1639.996,1688.353,1639.996z M1768.929,1531.405c-13.332,0-28.253,1.501-44.371,4.546
					c-23.54,4.446-37.694,17.258-38.83,35.147c-0.931,14.603,7.456,29.002,19.09,32.778c1.037,0.338,1.871,1.113,2.282,2.123
					c0.408,1.01,0.349,2.15-0.161,3.113l-11.145,21.029l47.399-14.659c0.573-0.182,1.189-0.214,1.776-0.1
					c37.301,7.08,63.632,5.03,78.265-6.114c7.961-6.061,12.298-14.68,13.256-26.35c1.274-15.546-2.866-27.739-12.304-36.236
					C1812.977,1536.591,1793.702,1531.405,1768.929,1531.405z"/>
			</g>
			<g>
				<path style="fill:#CCCCCC;" d="M1733.13,1584.586c-10.328,0-18.418-6.193-18.43-14.113c-0.009-7.928,8.084-14.148,18.427-14.163
					c0.008,0,0.021,0,0.03,0c10.33,0,18.426,6.193,18.438,14.113c0.008,3.97-2.126,7.764-5.85,10.41
					c-3.397,2.413-7.864,3.747-12.577,3.753C1733.156,1584.586,1733.141,1584.586,1733.13,1584.586z M1733.156,1563.686
					c-0.009,0-0.012,0-0.021,0c-5.893,0.009-11.062,3.177-11.059,6.777c0.005,3.595,5.171,6.742,11.056,6.745
					c0.009,0,0.015,0,0.024,0c3.154-0.005,6.184-0.878,8.313-2.39c1.028-0.731,2.752-2.27,2.749-4.384
					C1744.212,1566.776,1739.146,1563.686,1733.156,1563.686z"/>
			</g>
			<g>
				<path style="fill:#CCCCCC;" d="M1793.405,1584.504c-10.328,0-18.418-6.19-18.43-14.11c-0.009-3.967,2.129-7.761,5.861-10.413
					c3.409-2.417,7.711-3.902,12.604-3.75c10.328,0,18.418,6.19,18.43,14.11v0.003c0.009,7.929-8.087,14.152-18.43,14.16
					C1793.429,1584.504,1793.417,1584.504,1793.405,1584.504z M1793.438,1563.607c-0.009,0-0.015,0-0.024,0
					c-3.145,0.006-6.17,0.878-8.305,2.394c-1.031,0.731-2.76,2.273-2.757,4.381c0.006,3.597,5.172,6.745,11.056,6.745
					c0.009,0,0.014,0,0.024,0c5.897-0.009,11.062-3.172,11.062-6.775C1804.488,1566.755,1799.322,1563.607,1793.438,1563.607z"/>
			</g>
		</g>
		<g>
			<g>
				<path style="fill:#CCCCCC;" d="M941.68,1614.689c-18.347,0-41.244-9.35-68.286-27.912l-57.236-6.724
					c-1.483-0.173-2.714-1.224-3.119-2.664c-0.405-1.439,0.094-2.978,1.268-3.902l22.538-17.728
					c-9.059-11.009-10.41-28.863-2.798-43.467c4.716-9.047,19.819-29.122,57.965-20.186c28.158,6.599,77.528,22.432,91.802,54.327
					c6.178,13.805,4.939,28.828-3.682,44.656c-6.563,12.055-15.837,19.584-27.557,22.377
					C949.146,1614.28,945.51,1614.689,941.68,1614.689z M825.889,1573.765l49.276,5.788c0.596,0.07,1.169,0.287,1.665,0.628
					c31.236,21.58,56.124,30.344,74.037,26.103c9.732-2.317,17.188-8.443,22.788-18.727c7.462-13.696,8.613-26.52,3.424-38.111
					c-9.476-21.176-41.097-39.458-86.752-50.159c-23.307-5.459-41.449,0.517-49.736,16.412c-6.763,12.98-4.925,29.539,4.188,37.702
					c0.81,0.728,1.259,1.777,1.225,2.866c-0.036,1.089-0.549,2.109-1.407,2.784L825.889,1573.765z"/>
			</g>
			<g>
				<path style="fill:#CCCCCC;" d="M887.78,1549.277c-3.045,0-6.237-0.687-9.273-2.026c-9.465-4.179-14.372-13.132-11.174-20.386
					c3.201-7.253,13.121-9.664,22.588-5.485c4.314,1.9,7.867,4.919,10.005,8.495c2.343,3.924,2.766,8.255,1.162,11.884
					c-1.6,3.633-5.086,6.237-9.561,7.151C890.317,1549.156,889.063,1549.277,887.78,1549.277z M880.647,1526.754
					c-3.098,0-5.676,1.084-6.563,3.089c-1.451,3.295,2.006,8.275,7.4,10.656c2.886,1.271,6.005,1.692,8.569,1.181
					c1.233-0.253,3.433-0.963,4.284-2.898c0,0,0,0,0.003,0c0.852-1.935-0.103-4.041-0.749-5.122
					c-1.342-2.243-3.765-4.258-6.649-5.529C884.835,1527.2,882.636,1526.754,880.647,1526.754z"/>
			</g>
			<g>
				<path style="fill:#CCCCCC;" d="M942.914,1573.606c-3.048,0-6.234-0.687-9.262-2.023c-4.305-1.9-7.853-4.916-9.993-8.495
					c-2.352-3.926-2.781-8.261-1.178-11.89c1.6-3.629,5.089-6.234,9.576-7.145c4.088-0.833,8.71-0.24,13.009,1.659
					c4.302,1.897,7.853,4.913,9.994,8.49c2.349,3.93,2.778,8.264,1.175,11.893c-1.6,3.63-5.089,6.231-9.576,7.145
					C945.448,1573.483,944.194,1573.606,942.914,1573.606z M935.784,1551.068c-0.784,0-1.542,0.071-2.258,0.218
					c-1.24,0.25-3.445,0.96-4.293,2.889c-0.855,1.932,0.109,4.041,0.758,5.125c1.342,2.246,3.765,4.261,6.64,5.532
					c2.875,1.263,6,1.689,8.56,1.175c1.24-0.253,3.445-0.963,4.293-2.892c0,0,0.003,0,0.003-0.003
					c0.852-1.926-0.112-4.035-0.761-5.119c-1.342-2.246-3.762-4.264-6.637-5.529
					C940.013,1551.547,937.813,1551.068,935.784,1551.068z"/>
			</g>
		</g>
		<g>
			<g>
				<path style="fill:#CCCCCC;" d="M1267.565,911.263c-0.787,0-1.572-0.25-2.226-0.746c-1.192-0.901-1.721-2.432-1.342-3.877
					l7.265-27.742c-13.867-3.31-25.721-16.729-28.467-32.966c-1.7-10.061-1.791-35.177,34.029-51.082
					c26.432-11.737,75.352-28.916,105.983-12.098c13.261,7.277,21.343,20.004,24.024,37.826c2.041,13.573-0.808,25.172-8.469,34.472
					c-12.977,15.758-39.637,24.676-79.237,26.517l-49.692,29.186C1268.854,911.095,1268.208,911.263,1267.565,911.263z
					 M1351.46,783.206c-19.564,0-44.251,6.231-71.64,18.389c-21.895,9.723-32.737,25.434-29.747,43.109
					c2.44,14.427,13.902,26.523,26.091,27.533c1.087,0.088,2.077,0.655,2.708,1.545c0.629,0.889,0.834,2.011,0.555,3.065
					l-6.029,23.023l42.78-25.126c0.52-0.305,1.104-0.479,1.706-0.505c37.931-1.65,63.092-9.684,74.782-23.877
					c6.364-7.726,8.61-17.108,6.869-28.684c-2.32-15.426-9.141-26.347-20.277-32.455
					C1371.918,785.194,1362.504,783.206,1351.46,783.206z"/>
			</g>
			<g>
				<path style="fill:#CCCCCC;" d="M1293.735,847.637c-7.732,0-14.125-3.929-15.605-10.178c-0.914-3.856,0.302-8.043,3.336-11.482
					c2.76-3.127,6.795-5.444,11.359-6.528c4.586-1.087,9.247-0.822,13.106,0.74c4.237,1.712,7.192,4.91,8.105,8.772l0,0
					c1.823,7.714-4.631,15.623-14.695,18.01C1297.43,847.422,1295.545,847.637,1293.735,847.637z M1298.378,826.173
					c-1.257,0-2.561,0.153-3.853,0.458c-3.049,0.722-5.791,2.264-7.527,4.228c-0.837,0.951-2.173,2.852-1.686,4.898
					c0.828,3.506,6.581,5.389,12.328,4.029c5.835-1.383,10.055-5.565,9.212-9.13c-0.488-2.055-2.52-3.157-3.685-3.627
					C1301.761,826.461,1300.114,826.173,1298.378,826.173z"/>
			</g>
			<g>
				<path style="fill:#CCCCCC;" d="M1352.382,833.753c-7.723,0-14.116-3.926-15.599-10.175c-1.823-7.717,4.631-15.628,14.695-18.013
					c10.063-2.382,19.382,1.794,21.214,9.508v0.003c1.824,7.714-4.631,15.623-14.694,18.007
					C1356.082,833.536,1354.194,833.753,1352.382,833.753z M1356.945,812.304c-1.222,0-2.493,0.141-3.768,0.443
					c-5.735,1.357-10.04,5.624-9.212,9.13c0.831,3.503,6.593,5.392,12.328,4.023c5.738-1.357,10.043-5.62,9.215-9.124l0,0
					C1364.862,814.048,1361.23,812.304,1356.945,812.304z"/>
			</g>
		</g>
		<g>
			<g>
				<path style="fill:#CCCCCC;" d="M2088.191,1102.274c-19.02,0-42.474-11.135-69.869-33.204l-56.553-11.08
					c-1.465-0.287-2.613-1.43-2.907-2.892c-0.293-1.466,0.323-2.963,1.565-3.794l23.824-15.954
					c-8.19-11.67-8.172-29.574,0.535-43.552c5.392-8.663,21.983-27.53,59.336-15.699c27.571,8.734,75.584,28.294,87.383,61.187
					c5.107,14.239,2.722,29.124-7.086,44.248c-7.468,11.517-17.288,18.312-29.187,20.201
					C2092.957,1102.095,2090.611,1102.274,2088.191,1102.274z M1971.954,1052.467l48.685,9.538c0.591,0.115,1.145,0.376,1.612,0.755
					c29.498,23.898,53.642,34.57,71.825,31.686c9.885-1.568,17.784-7.104,24.154-16.93c8.487-13.085,10.615-25.783,6.328-37.741
					c-7.832-21.836-37.961-42.483-82.661-56.64c-22.838-7.242-41.373-2.652-50.847,12.562c-7.735,12.422-7.171,29.075,1.289,37.911
					c0.752,0.787,1.119,1.868,1.001,2.952c-0.117,1.083-0.707,2.059-1.615,2.666L1971.954,1052.467z"/>
			</g>
			<g>
				<path style="fill:#CCCCCC;" d="M2037.054,1032.857c-3.397,0-7.077-0.91-10.612-2.807c-4.135-2.214-7.439-5.491-9.303-9.223
					c-2.05-4.103-2.152-8.461-0.276-11.955c1.873-3.495,5.556-5.823,10.107-6.387c4.153-0.497,8.698,0.426,12.833,2.643
					c9.116,4.889,13.324,14.193,9.576,21.179C2047.089,1030.581,2042.419,1032.857,2037.054,1032.857z M2029.205,1009.729
					c-0.452,0-0.896,0.026-1.327,0.079c-1.26,0.156-3.518,0.693-4.514,2.552c-0.992,1.853-0.191,4.032,0.376,5.169
					c1.172,2.344,3.427,4.537,6.19,6.02c5.289,2.834,11.215,2.502,12.948-0.731c1.73-3.227-1.275-8.352-6.563-11.188
					C2034.012,1010.395,2031.489,1009.729,2029.205,1009.729z"/>
			</g>
			<g>
				<path style="fill:#CCCCCC;" d="M2090.179,1061.336c-3.397,0-7.08-0.914-10.615-2.81c-9.115-4.886-13.323-14.19-9.576-21.178
					c1.87-3.494,5.55-5.823,10.093-6.39c4.141-0.499,8.698,0.426,12.844,2.649c4.144,2.22,7.453,5.497,9.315,9.229
					c2.044,4.097,2.14,8.452,0.264,11.949l0,0C2100.211,1059.06,2095.544,1061.336,2090.179,1061.336z M2082.321,1038.198
					c-0.455,0-0.899,0.026-1.327,0.082c-1.254,0.156-3.507,0.696-4.502,2.552c-1.703,3.177,1.363,8.405,6.56,11.192
					c5.195,2.789,11.248,2.449,12.951-0.728l0,0c0.995-1.859,0.2-4.035-0.367-5.166c-1.168-2.344-3.427-4.537-6.196-6.02
					C2087.128,1038.868,2084.603,1038.198,2082.321,1038.198z M2099.253,1053.04h0.059H2099.253z"/>
			</g>
		</g>
		<g>
			<g>
				<path style="fill:#CCCCCC;" d="M548.311,1551.635c-0.191,0-0.387-0.017-0.581-0.047c-1.475-0.235-2.664-1.336-3.007-2.79
					l-6.64-27.894c-13.793,3.601-30.567-2.663-40.627-15.698c-6.234-8.079-18.131-30.2,5.997-61.087
					c17.704-22.664,52.508-60.537,87.254-60.537c0.194,0,0.381,0,0.579,0.003c15.123,0.182,28.243,7.611,38.994,22.08
					c8.188,11.018,11.13,22.594,8.743,34.405c-4.041,20.01-23.37,40.422-57.448,60.672l-30.117,49.131
					C550.778,1550.977,549.58,1551.635,548.311,1551.635z M540.735,1512.417c0.567,0,1.136,0.129,1.656,0.39
					c0.972,0.488,1.68,1.383,1.932,2.443l5.509,23.149l25.93-42.295c0.314-0.514,0.752-0.943,1.268-1.248
					c32.696-19.299,51.12-38.222,54.758-56.247c1.982-9.811-0.449-19.146-7.435-28.546c-9.303-12.521-20.459-18.946-33.16-19.099
					c-23.075-0.159-53.06,20.75-81.927,57.697c-14.748,18.876-16.923,37.844-5.97,52.033c8.939,11.584,24.735,16.862,35.978,12.022
					C539.742,1512.517,540.239,1512.417,540.735,1512.417z"/>
			</g>
			<g>
				<path style="fill:#CCCCCC;" d="M534.19,1485.142c-3.741,0-7.154-1.33-9.541-4.038c-5.239-5.952-3.266-15.968,4.495-22.808
					c3.539-3.116,7.77-5.075,11.914-5.512c4.525-0.488,8.651,0.945,11.276,3.926c5.242,5.952,3.266,15.969-4.493,22.805
					C543.613,1483.239,538.665,1485.142,534.19,1485.142z M542.791,1460.07c-0.355,0-0.681,0.024-0.954,0.05
					c-2.599,0.276-5.448,1.63-7.811,3.715c-4.426,3.896-6.22,9.688-3.838,12.389c2.372,2.699,8.349,1.653,12.777-2.246
					c4.499-3.964,6.255-9.638,3.832-12.387C545.704,1460.349,544.056,1460.07,542.791,1460.07z"/>
			</g>
			<g>
				<path style="fill:#CCCCCC;" d="M579.418,1445.296c-3.744,0-7.156-1.33-9.544-4.037c-5.239-5.95-3.266-15.966,4.496-22.805
					c7.764-6.842,17.951-7.536,23.193-1.589l0,0c5.239,5.95,3.263,15.966-4.496,22.808
					C588.839,1443.396,583.891,1445.296,579.418,1445.296z M588.076,1420.238c-2.717,0-6.07,1.325-8.825,3.753
					c-4.426,3.897-6.22,9.684-3.838,12.386c2.382,2.714,8.352,1.656,12.777-2.243c4.423-3.897,6.214-9.688,3.835-12.39l0,0
					C591.13,1420.726,589.72,1420.238,588.076,1420.238z"/>
			</g>
		</g>
		<g>
			<g>
				<path style="fill:#CCCCCC;" d="M237.906,326.612c-19.299,0-42.903-11.893-70.298-35.441l-56.172-12.877
					c-1.455-0.334-2.566-1.512-2.813-2.986c-0.248-1.472,0.417-2.949,1.685-3.741l24.322-15.185
					c-7.813-11.928-7.224-29.824,1.923-43.517c5.668-8.483,22.845-26.819,59.807-13.793c27.277,9.608,74.644,30.69,85.383,63.943
					c4.652,14.392,1.795,29.195-8.489,43.995c-7.832,11.273-17.866,17.755-29.821,19.261
					C241.632,326.498,239.789,326.612,237.906,326.612z M121.79,273.097l48.358,11.085c0.587,0.135,1.133,0.411,1.588,0.808
					c28.717,24.829,52.512,36.249,70.774,33.961c9.929-1.251,18.001-6.534,24.682-16.151c8.901-12.809,11.435-25.431,7.529-37.517
					c-7.13-22.077-36.587-43.673-80.811-59.251c-22.591-7.952-41.261-3.97-51.222,10.933c-8.128,12.169-8.093,28.831,0.079,37.934
					c0.728,0.811,1.06,1.9,0.907,2.981c-0.153,1.078-0.774,2.035-1.699,2.614L121.79,273.097z"/>
			</g>
			<g>
				<path style="fill:#CCCCCC;" d="M188.069,255.565c-3.676,0-7.558-1.089-11.103-3.136c-8.956-5.177-12.865-14.609-8.9-21.473
					c3.967-6.866,14.089-8.19,23.049-3.012c4.082,2.358,7.288,5.743,9.027,9.532c1.903,4.153,1.856,8.508-0.129,11.943
					c-1.985,3.436-5.732,5.647-10.281,6.069C189.183,255.542,188.628,255.565,188.069,255.565z M179.971,232.211
					c-2.499,0-4.582,0.82-5.515,2.438c-1.8,3.116,1.098,8.439,6.202,11.391c2.731,1.577,5.788,2.357,8.39,2.103
					c1.257-0.118,3.518-0.585,4.576-2.414v-0.003c1.06-1.829,0.334-4.026-0.191-5.171c-1.089-2.376-3.28-4.642-6.008-6.219
					C184.966,232.916,182.29,232.211,179.971,232.211z"/>
			</g>
			<g>
				<path style="fill:#CCCCCC;" d="M240.27,285.741c-3.564,0-7.438-1.028-11.118-3.154c-4.07-2.355-7.271-5.735-9.012-9.526
					c-1.912-4.158-1.871-8.513,0.114-11.949c3.965-6.863,14.093-8.187,23.049-3.01c4.07,2.355,7.271,5.735,9.013,9.526
					c1.911,4.158,1.87,8.513-0.115,11.949C249.863,283.621,245.385,285.741,240.27,285.741z M232.159,262.373
					c-2.499,0-4.581,0.816-5.515,2.435c-1.057,1.827-0.329,4.026,0.2,5.174c1.092,2.379,3.28,4.646,6.003,6.217
					c5.101,2.945,11.165,2.804,12.965-0.314c1.057-1.827,0.329-4.026-0.2-5.174c-1.092-2.378-3.28-4.646-6.002-6.217
					C237.154,263.074,234.479,262.373,232.159,262.373z"/>
			</g>
		</g>
		<g>
			<g>
				<path style="fill:#CCCCCC;" d="M974.309,866.146c-20.239,0-44.075-14.454-70.873-42.98l-54.482-18.782
					c-1.41-0.488-2.391-1.776-2.478-3.269c-0.091-1.491,0.728-2.889,2.073-3.541l25.8-12.51c-6.498-12.689-4.008-30.42,6.543-43.062
					c6.537-7.835,25.578-24.232,60.939-7.353c26.1,12.457,70.953,38.463,78.092,72.668c3.092,14.806-1.324,29.222-13.123,42.844
					c-8.989,10.375-19.655,15.749-31.7,15.975C974.834,866.143,974.57,866.146,974.309,866.146z M859.804,800.32l46.902,16.169
					c0.57,0.197,1.081,0.529,1.492,0.969c25.915,27.751,48.247,41.691,66.762,41.3c10.005-0.185,18.594-4.578,26.259-13.429
					c10.214-11.79,14.078-24.071,11.482-36.504c-4.742-22.708-31.732-47.317-74.048-67.514
					c-21.625-10.316-40.609-8.343-52.097,5.421c-9.377,11.235-11.115,27.806-3.955,37.726c0.638,0.884,0.852,2.003,0.585,3.06
					c-0.265,1.057-0.987,1.944-1.968,2.42L859.804,800.32z"/>
			</g>
			<g>
				<path style="fill:#CCCCCC;" d="M929.474,790.062c-4.076,0-8.557-1.468-12.607-4.422c-3.788-2.766-6.611-6.466-7.94-10.422
					c-1.466-4.343-0.96-8.675,1.377-11.875c2.337-3.204,6.307-5.133,10.891-4.93c4.17,0.064,8.554,1.621,12.345,4.387
					c3.809,2.781,6.634,6.487,7.961,10.44c1.451,4.331,0.942,8.654-1.398,11.861l0,0
					C937.693,788.401,933.813,790.062,929.474,790.062z M920.94,765.789c-1.292,0-3.48,0.268-4.675,1.906
					c-1.242,1.7-0.749,3.968-0.346,5.169c0.836,2.484,2.769,4.969,5.3,6.816c4.849,3.542,10.76,4.026,12.924,1.069l0,0
					c1.248-1.709,0.764-3.967,0.362-5.162c-0.831-2.478-2.77-4.966-5.315-6.824c-2.531-1.847-5.485-2.931-8.105-2.969
					C921.037,765.789,920.99,765.789,920.94,765.789z"/>
			</g>
			<g>
				<path style="fill:#CCCCCC;" d="M978.156,825.604c-4.079,0-8.56-1.468-12.61-4.422c-3.797-2.773-6.622-6.478-7.949-10.431
					c-1.457-4.337-0.952-8.663,1.386-11.867c4.678-6.398,14.885-6.64,23.24-0.543c8.351,6.103,11.235,15.896,6.563,22.3l0,0
					C986.375,823.942,982.493,825.604,978.156,825.604z M985.806,818.465h0.058H985.806z M969.567,801.339
					c-2.003,0-3.692,0.62-4.622,1.897c-1.245,1.703-0.755,3.967-0.352,5.165c0.834,2.481,2.766,4.965,5.306,6.819
					c4.76,3.474,10.798,3.982,12.927,1.069l0,0c2.123-2.907-0.194-8.51-4.954-11.987
					C975.199,802.352,972.127,801.339,969.567,801.339z"/>
			</g>
		</g>
		<g>
			<g>
				<path style="fill:#CCCCCC;" d="M941.41,1275.796c-0.332,0-0.666-0.047-0.995-0.138c-1.439-0.402-2.49-1.633-2.67-3.116
					l-3.391-28.472c-14.122,2.003-30.062-6.155-38.563-20.26c-5.265-8.739-14.545-32.079,12.964-59.991
					c20.304-20.6,59.551-54.461,94.196-50.065c15.003,1.918,27.184,10.801,36.202,26.405c6.869,11.884,8.466,23.722,4.74,35.183
					c-6.308,19.414-27.851,37.474-64.026,53.686l-35.553,45.352C943.604,1275.287,942.527,1275.796,941.41,1275.796z
					 M937.537,1235.917c0.71,0,1.415,0.203,2.023,0.602c0.911,0.596,1.513,1.568,1.642,2.649l2.816,23.63l30.605-39.041
					c0.373-0.476,0.855-0.852,1.407-1.095c34.692-15.423,55.163-32.111,60.846-49.602c3.095-9.517,1.75-19.07-4.111-29.207
					c-7.806-13.505-18.151-21.17-30.749-22.779c-23.049-2.957-55.09,14.53-88.003,47.925c-16.815,17.061-21.152,35.65-11.902,51.002
					c7.558,12.536,22.667,19.596,34.363,16.072C936.824,1235.967,937.182,1235.917,937.537,1235.917z"/>
			</g>
			<g>
				<path style="fill:#CCCCCC;" d="M936.483,1208.205c-4.501,0-8.508-1.756-10.912-5.215c-2.264-3.257-2.663-7.597-1.098-11.905
					c1.421-3.923,4.328-7.555,8.182-10.234c3.87-2.693,8.39-4.111,12.462-4.111c4.569,0.041,8.487,1.935,10.751,5.194l0,0
					c2.267,3.257,2.678,7.591,1.125,11.887c-1.415,3.92-4.328,7.562-8.201,10.252
					C944.808,1206.839,940.453,1208.205,936.483,1208.205z M944.958,1184.119c-2.59,0-5.535,1.013-8.093,2.793
					c-2.573,1.788-4.563,4.226-5.457,6.689c-0.434,1.192-0.978,3.447,0.223,5.177c2.056,2.957,8.102,2.599,12.948-0.766
					c2.59-1.8,4.584-4.24,5.473-6.698c0.426-1.184,0.966-3.43-0.24-5.168c-0.003,0-0.003,0-0.003,0
					c-1.207-1.735-3.5-2.014-4.76-2.026C945.02,1184.119,944.988,1184.119,944.958,1184.119z"/>
			</g>
			<g>
				<path style="fill:#CCCCCC;" d="M985.982,1173.809c-4.502,0-8.508-1.756-10.913-5.215c-2.264-3.257-2.669-7.594-1.11-11.899
					c1.419-3.918,4.329-7.556,8.191-10.24c3.861-2.684,8.078-4.291,12.456-4.105c4.576,0.038,8.499,1.932,10.763,5.189
					s2.669,7.594,1.11,11.899c-1.422,3.921-4.332,7.556-8.193,10.24C994.304,1172.443,989.949,1173.809,985.982,1173.809z
					 M994.453,1149.729c-2.596,0-5.541,1.013-8.093,2.787c-2.581,1.795-4.572,4.231-5.464,6.693
					c-0.429,1.19-0.972,3.442,0.232,5.174c2.056,2.951,8.108,2.599,12.948-0.767c2.581-1.794,4.572-4.232,5.465-6.693
					c0.431-1.189,0.972-3.441-0.232-5.174c-1.204-1.733-3.503-2.012-4.766-2.021
					C994.512,1149.729,994.483,1149.729,994.453,1149.729z"/>
			</g>
		</g>
		<g>
			<g>
				<path style="fill:#CCCCCC;" d="M545.845,1084.561c-0.702,0-1.404-0.197-2.015-0.599c-1.251-0.814-1.888-2.305-1.612-3.773
					l5.309-28.179c-14.066-2.332-26.832-14.888-30.708-30.893c-2.402-9.917-4.252-34.966,30.367-53.339
					c25.548-13.556,73.138-34.123,104.876-19.493c13.737,6.332,22.691,18.46,26.611,36.053c2.99,13.399,0.96,25.169-6.032,34.986
					c-11.843,16.623-37.811,27.389-77.184,31.997l-47.525,32.596C547.305,1084.347,546.573,1084.561,545.845,1084.561z
					 M626.747,950.721c-20.438,0-46.879,8.067-76.101,23.575c-21.158,11.229-30.875,27.662-26.655,45.082
					c3.445,14.225,15.725,25.486,27.959,25.642c1.09,0.012,2.117,0.508,2.807,1.351c0.69,0.843,0.972,1.95,0.772,3.022
					l-4.405,23.383l40.912-28.059c0.499-0.34,1.072-0.555,1.671-0.622c37.72-4.302,62.255-14.078,72.924-29.055
					c5.805-8.151,7.388-17.672,4.842-29.101c-3.394-15.224-10.965-25.639-22.5-30.954
					C642.769,952.128,635.281,950.721,626.747,950.721z"/>
			</g>
			<g>
				<path style="fill:#CCCCCC;" d="M566.257,1019.287c-2.111,0-4.164-0.306-6.058-0.919c-4.364-1.41-7.541-4.39-8.725-8.179
					c-1.181-3.785-0.261-8.046,2.525-11.688c2.534-3.312,6.396-5.908,10.874-7.303c9.87-3.089,19.461,0.429,21.822,7.996
					c0,0.003,0,0.003,0,0.003c2.361,7.567-3.524,15.91-13.4,18.991C570.958,1018.92,568.571,1019.287,566.257,1019.287z
					 M571.98,997.474c-1.559,0-3.236,0.247-4.91,0.767c-2.99,0.934-5.618,2.664-7.209,4.745c-0.773,1.007-1.971,2.996-1.342,5.004
					c0.628,2.012,2.746,2.966,3.95,3.357c2.496,0.805,5.638,0.731,8.628-0.2c5.73-1.789,9.647-6.255,8.554-9.752
					C578.878,998.919,575.766,997.474,571.98,997.474z"/>
			</g>
			<g>
				<path style="fill:#CCCCCC;" d="M623.725,1001.345c-7.03,0-12.93-3.4-14.712-9.112c-2.361-7.57,3.524-15.913,13.396-18.994
					c4.49-1.404,9.15-1.469,13.112-0.182c4.355,1.412,7.53,4.393,8.713,8.181c1.18,3.788,0.267,8.043-2.511,11.682
					c-2.531,3.313-6.399,5.908-10.889,7.31C628.415,1000.986,626.01,1001.345,623.725,1001.345z M629.472,979.52
					c-1.58,0-3.245,0.256-4.866,0.761c-5.627,1.759-9.623,6.314-8.548,9.752c1.075,3.439,6.953,4.91,12.58,3.154
					c2.998-0.937,5.632-2.67,7.221-4.749c0.766-1.001,1.959-2.987,1.33-5.001c0-0.003,0-0.003,0-0.003
					c-0.628-2.015-2.74-2.969-3.941-3.357C632.103,979.706,630.817,979.52,629.472,979.52z"/>
			</g>
		</g>
		<g>
			<g>
				<path style="fill:#CCCCCC;" d="M1394.228,1267.796c-0.464,0-0.931-0.009-1.401-0.023c-20.4-0.687-43.719-16.386-69.315-46.662
					l-53.425-21.607c-1.386-0.561-2.296-1.9-2.305-3.394c-0.012-1.492,0.878-2.846,2.255-3.427l26.417-11.141
					c-5.823-13.015-2.408-30.59,8.789-42.665c6.942-7.48,26.799-22.852,61.239-4.15c25.413,13.805,68.842,42.116,74.187,76.65
					c2.314,14.947-2.852,29.114-15.35,42.099C1416.172,1262.983,1405.718,1267.796,1394.228,1267.796z M1281.135,1196.012
					l45.993,18.6c0.557,0.226,1.054,0.588,1.442,1.048c24.426,29.066,46.127,44.119,64.507,44.736
					c10.028,0.376,18.808-3.597,26.928-12.036c10.816-11.241,15.314-23.304,13.374-35.856
					c-3.548-22.929-29.216-48.914-70.419-71.294c-21.052-11.435-40.113-10.454-52.303,2.687
					c-9.952,10.727-12.557,27.187-5.929,37.468c0.59,0.916,0.746,2.047,0.426,3.089c-0.323,1.039-1.09,1.885-2.094,2.311
					L1281.135,1196.012z"/>
			</g>
			<g>
				<path style="fill:#CCCCCC;" d="M1352.115,1189.437c-4.308,0-9.063-1.709-13.23-5.098c-8.022-6.531-10.389-16.462-5.389-22.611
					c5.007-6.143,15.211-5.853,23.237,0.675c3.656,2.974,6.287,6.824,7.403,10.839c1.224,4.402,0.49,8.692-2.015,11.772l0,0
					C1359.714,1187.972,1356.105,1189.437,1352.115,1189.437z M1359.259,1182.686h0.059H1359.259z M1343.448,1164.72
					c-1.791,0-3.312,0.541-4.229,1.665c-2.27,2.792-0.25,8.507,4.323,12.228c4.651,3.788,10.539,4.59,12.853,1.744l0,0
					c1.336-1.641,0.969-3.923,0.631-5.136c-0.702-2.519-2.505-5.104-4.951-7.092
					C1349.345,1165.906,1346.103,1164.72,1343.448,1164.72z"/>
			</g>
			<g>
				<path style="fill:#CCCCCC;" d="M1398.87,1227.477c-4.308,0-9.063-1.709-13.229-5.098c-8.026-6.534-10.39-16.465-5.389-22.611
					c2.502-3.078,6.537-4.699,11.127-4.361c4.161,0.279,8.463,2.067,12.11,5.033c8.026,6.534,10.39,16.465,5.389,22.611
					C1406.47,1226.009,1402.861,1227.477,1398.87,1227.477z M1390.266,1202.749c-1.304,0-3.154,0.282-4.287,1.677
					c-2.273,2.792-0.253,8.507,4.32,12.231c4.572,3.717,10.581,4.542,12.853,1.738c0,0,0,0,0.003,0
					c2.27-2.792,0.25-8.507-4.323-12.231c-2.438-1.982-5.333-3.218-7.946-3.394
					C1390.701,1202.757,1390.492,1202.749,1390.266,1202.749z"/>
			</g>
		</g>
		<g>
			<g>
				<path style="fill:#CCCCCC;" d="M2415.594,562.582c-18.18,0-40.906-8.933-67.791-26.678l-57.348-5.691
					c-1.486-0.147-2.737-1.174-3.169-2.605c-0.432-1.43,0.041-2.981,1.198-3.923l22.215-18.134
					c-9.256-10.845-10.93-28.672-3.586-43.408c4.552-9.13,19.29-29.486,57.589-21.234c28.273,6.087,77.921,21.026,92.772,52.655
					c6.428,13.69,5.462,28.737-2.872,44.718c-6.346,12.172-15.478,19.866-27.148,22.87
					C2423.748,562.106,2419.793,562.582,2415.594,562.582z M2300.073,523.752l49.369,4.898c0.599,0.058,1.175,0.264,1.677,0.596
					c31.632,21.017,56.702,29.325,74.497,24.758c9.69-2.493,17.032-8.754,22.444-19.135c7.212-13.831,8.135-26.672,2.734-38.169
					c-9.858-21.002-41.805-38.707-87.644-48.58c-23.425-5.03-41.435,1.269-49.431,17.314c-6.528,13.098-4.39,29.621,4.866,37.617
					c0.825,0.714,1.295,1.753,1.277,2.845c-0.014,1.09-0.51,2.117-1.354,2.805L2300.073,523.752z"/>
			</g>
			<g>
				<path style="fill:#CCCCCC;" d="M2361.141,498.152c-2.937,0-6.006-0.631-8.942-1.862c-9.542-4.008-14.606-12.871-11.541-20.18
					c1.536-3.659,4.986-6.325,9.462-7.315c4.067-0.895,8.7-0.399,13.023,1.421c4.349,1.824,7.955,4.775,10.158,8.314
					c2.41,3.879,2.916,8.201,1.38,11.86l0,0c-1.535,3.659-4.974,6.329-9.435,7.324
					C2363.928,498.007,2362.551,498.152,2361.141,498.152z M2354.205,475.74c-0.867,0-1.706,0.088-2.49,0.262
					c-1.24,0.273-3.436,1.022-4.249,2.963c-1.395,3.322,2.153,8.237,7.591,10.522c2.904,1.222,6.038,1.589,8.586,1.025
					c1.23-0.274,3.416-1.025,4.231-2.975l0,0c0.819-1.953-0.173-4.038-0.839-5.107c-1.38-2.217-3.838-4.191-6.745-5.409
					C2358.284,476.177,2356.169,475.74,2354.205,475.74z"/>
			</g>
			<g>
				<path style="fill:#CCCCCC;" d="M2416.745,521.497c-2.872,0-5.938-0.605-8.968-1.876c-9.541-4.008-14.609-12.871-11.541-20.18
					c1.539-3.659,4.981-6.325,9.447-7.318c4.073-0.908,8.701-0.402,13.039,1.424c4.334,1.818,7.937,4.769,10.143,8.308
					c2.423,3.882,2.93,8.207,1.395,11.866C2428.165,518.707,2422.903,521.497,2416.745,521.497z M2409.771,499.068
					c-0.866,0-1.703,0.085-2.488,0.259c-1.233,0.276-3.424,1.025-4.243,2.971c-1.392,3.319,2.156,8.234,7.594,10.519
					c5.432,2.282,11.426,1.372,12.818-1.95c0.82-1.947-0.182-4.038-0.849-5.11c-1.386-2.22-3.841-4.191-6.739-5.406
					C2413.855,499.505,2411.735,499.068,2409.771,499.068z"/>
			</g>
		</g>
	</g>
</g>
</svg>
