<svg width="148" height="147" viewBox="0 0 148 147" fill="none" xmlns="http://www.w3.org/2000/svg">
<path d="M75.0502 146.155C73.0852 146.155 71.4772 144.578 71.4462 142.607C71.4152 140.619 73.0032 138.978 74.9942 138.947C91.7552 138.68 107.624 132.115 119.678 120.463C121.117 119.082 123.392 119.121 124.774 120.55C126.159 121.98 126.12 124.262 124.689 125.646C111.312 138.573 93.7032 145.857 75.1062 146.155C75.0902 146.155 75.0702 146.155 75.0502 146.155Z" fill="white"/>
<path d="M72.7841 7.26497C70.8191 7.26497 69.2111 5.68697 69.1801 3.71497C69.1521 1.72397 70.7401 0.0869763 72.7301 0.0569763L73.059 0.0389709C73.343 0.0179709 73.6281 0.000976562 73.9181 0.000976562C75.9091 0.000976562 77.522 1.61398 77.522 3.60498C77.522 5.59598 75.9091 7.20897 73.9181 7.20897L73.5721 7.22897C73.3271 7.24597 73.085 7.26098 72.837 7.26598C72.82 7.26498 72.8011 7.26497 72.7841 7.26497Z" fill="white"/>
<path d="M4.41504 76.712C2.42404 76.712 0.811035 75.099 0.811035 73.108C0.811035 52.118 9.90804 32.1 25.769 18.187C27.267 16.871 29.542 17.024 30.854 18.519C32.166 20.016 32.02 22.292 30.522 23.604C16.221 36.15 8.02003 54.193 8.02003 73.108C8.01903 75.099 6.40604 76.712 4.41504 76.712Z" fill="white"/>
<path d="M72.784 146.155C72.764 146.155 72.747 146.155 72.728 146.155C54.128 145.857 36.522 138.573 23.148 125.646C21.718 124.262 21.678 121.98 23.063 120.55C24.445 119.121 26.726 119.082 28.159 120.463C40.21 132.115 56.079 138.68 72.84 138.947C74.831 138.978 76.419 140.62 76.388 142.607C76.357 144.578 74.749 146.155 72.784 146.155Z" fill="white"/>
<path d="M25.653 126.658C24.752 126.658 23.848 126.322 23.147 125.646C8.74203 111.726 0.811035 93.067 0.811035 73.108C0.811035 71.117 2.42404 69.504 4.41504 69.504C6.40604 69.504 8.01904 71.117 8.01904 73.108C8.01904 91.094 15.171 107.912 28.159 120.462C29.589 121.846 29.629 124.126 28.244 125.558C27.537 126.291 26.596 126.658 25.653 126.658Z" fill="white"/>
<path d="M73.918 146.214C73.62 146.214 73.327 146.194 73.034 146.175L72.705 146.155C70.714 146.11 69.138 144.46 69.18 142.472C69.225 140.509 70.83 138.947 72.781 138.947C72.809 138.947 72.837 138.947 72.863 138.947C73.1 138.953 73.33 138.969 73.561 138.986L73.919 139.006C75.91 139.006 77.523 140.619 77.523 142.61C77.523 144.601 75.909 146.214 73.918 146.214Z" fill="white"/>
<path d="M73.918 146.214C71.927 146.214 70.314 144.601 70.314 142.61C70.314 140.619 71.927 139.006 73.918 139.006L74.273 138.986C74.504 138.969 74.735 138.952 74.971 138.947C76.846 138.953 78.609 140.479 78.654 142.472C78.696 144.46 77.119 146.11 75.129 146.155L74.802 146.175C74.51 146.194 74.217 146.214 73.918 146.214Z" fill="white"/>
<path d="M119.686 24.499C118.844 24.499 117.997 24.205 117.312 23.604C105.588 13.318 90.5582 7.516 74.9912 7.265C73.0032 7.233 71.4152 5.592 71.4462 3.603C71.4802 1.612 73.0712 0.0890068 75.1092 0.0570068C92.3832 0.336007 109.06 6.775 122.065 18.187C123.563 19.499 123.709 21.777 122.397 23.272C121.685 24.084 120.688 24.499 119.686 24.499Z" fill="white"/>
<path d="M28.1479 24.499C27.1459 24.499 26.1489 24.084 25.4369 23.271C24.1249 21.776 24.2709 19.498 25.7689 18.186C38.7739 6.77398 55.4509 0.334974 72.7249 0.0559736C74.8089 -0.0230264 76.3539 1.60998 76.3879 3.60198C76.4189 5.59098 74.8309 7.23098 72.8429 7.26398C57.2749 7.51498 42.2459 13.317 30.5219 23.603C29.8369 24.205 28.9899 24.499 28.1479 24.499Z" fill="white"/>
<path d="M75.05 7.265C75.033 7.265 75.016 7.265 74.996 7.265C74.748 7.261 74.506 7.245 74.261 7.228L73.917 7.20801C71.926 7.20801 70.313 5.595 70.313 3.604C70.313 1.613 71.926 0 73.917 0C74.207 0 74.491 0.0170096 74.776 0.0380096L75.103 0.0559998C77.094 0.0859998 78.682 1.723 78.653 3.714C78.623 5.687 77.016 7.265 75.05 7.265Z" fill="white"/>
<path d="M122.184 126.658C121.241 126.658 120.3 126.291 119.594 125.558C118.209 124.126 118.248 121.846 119.679 120.462C132.665 107.914 139.816 91.097 139.816 73.108C139.816 54.193 131.614 36.15 117.314 23.604C115.816 22.292 115.67 20.015 116.982 18.519C118.291 17.024 120.569 16.87 122.067 18.187C137.927 32.1 147.025 52.118 147.025 73.108C147.025 93.068 139.093 111.727 124.692 125.646C123.988 126.322 123.085 126.658 122.184 126.658Z" fill="white"/>
<path d="M48.8261 36.032C48.2351 36.032 47.6351 35.887 47.0801 35.579C45.3401 34.613 44.7121 32.42 45.6781 30.68C52.0191 19.251 61.0651 9.18401 71.8381 1.56701C73.4541 0.417011 75.7151 0.80001 76.8611 2.42901C78.0101 4.05401 77.6241 6.30301 75.9991 7.45201C66.1051 14.449 57.7991 23.691 51.9791 34.178C51.3201 35.363 50.0931 36.032 48.8261 36.032Z" fill="white"/>
<path d="M73.921 8.11199C72.789 8.11199 71.677 7.58099 70.973 6.58599C69.827 4.95999 70.213 2.712 71.84 1.564L72.24 1.26099C72.491 1.06499 72.744 0.870997 73.006 0.690997C74.648 -0.441003 76.889 -0.0240151 78.018 1.61598C79.147 3.25598 78.733 5.49999 77.095 6.62899C76.946 6.73199 76.802 6.844 76.659 6.956C76.439 7.126 76.223 7.29399 75.997 7.45099C75.366 7.89799 74.639 8.11199 73.921 8.11199Z" fill="white"/>
<path d="M46.9812 113.713C45.6522 113.713 44.3712 112.974 43.7462 111.7C37.7432 99.508 34.6992 86.524 34.6992 73.108C34.6992 71.117 36.3122 69.504 38.3032 69.504C40.2942 69.504 41.9072 71.117 41.9072 73.108C41.9072 85.411 44.7002 97.324 50.2102 108.516C51.0912 110.302 50.3562 112.462 48.5682 113.342C48.0602 113.594 47.5162 113.713 46.9812 113.713Z" fill="white"/>
<path d="M75.047 146.155C74.352 146.155 73.65 145.955 73.031 145.536C72.752 145.347 72.485 145.145 72.22 144.939L71.84 144.652C70.213 143.503 69.827 141.254 70.973 139.629C72.125 138.004 74.371 137.616 75.996 138.762C76.216 138.917 76.427 139.08 76.638 139.243C76.779 139.353 76.919 139.466 77.069 139.567C78.719 140.682 79.15 142.92 78.035 144.57C77.339 145.6 76.205 146.155 75.047 146.155Z" fill="white"/>
<path d="M73.9158 145.31C73.1948 145.31 72.4688 145.096 71.8378 144.648C59.9168 136.218 50.2028 124.825 43.7438 111.698C42.8658 109.913 43.6028 107.752 45.3878 106.874C47.1728 105.994 49.3328 106.732 50.2138 108.517C56.1408 120.568 65.0578 131.026 75.9988 138.764C77.6238 139.913 78.0088 142.162 76.8608 143.787C76.1598 144.781 75.0448 145.31 73.9158 145.31Z" fill="white"/>
<path d="M38.3042 76.712C36.3132 76.712 34.7002 75.099 34.7002 73.108C34.7002 58.299 38.4952 43.627 45.6782 30.68C46.6382 28.94 48.8372 28.312 50.5772 29.276C52.3172 30.242 52.9452 32.435 51.9792 34.177C45.3902 46.057 41.9072 59.519 41.9072 73.108C41.9082 75.099 40.2942 76.712 38.3042 76.712Z" fill="white"/>
<path d="M48.8279 36.034C48.4199 36.034 48.0059 35.964 47.5979 35.817C39.6919 32.948 32.3939 28.877 25.9009 23.717C24.3439 22.478 24.0849 20.212 25.3239 18.653C26.5659 17.095 28.8289 16.838 30.3889 18.074C36.2679 22.748 42.8849 26.438 50.0589 29.039C51.9289 29.719 52.8939 31.786 52.2159 33.657C51.6829 35.123 50.3009 36.034 48.8279 36.034Z" fill="white"/>
<path d="M99.0062 36.034C97.5332 36.034 96.1512 35.123 95.6192 33.658C94.9412 31.787 95.9062 29.72 97.7762 29.04C104.95 26.438 111.567 22.748 117.446 18.075C119.009 16.838 121.272 17.095 122.511 18.654C123.75 20.212 123.491 22.479 121.934 23.718C115.441 28.878 108.143 32.949 100.237 35.818C99.8282 35.963 99.4142 36.034 99.0062 36.034Z" fill="white"/>
<path d="M73.918 40.509C71.927 40.509 70.314 38.896 70.314 36.905C70.314 34.914 71.927 33.301 73.918 33.301C81.954 33.301 89.981 31.868 97.778 29.04C99.645 28.364 101.717 29.329 102.393 31.2C103.071 33.071 102.106 35.139 100.233 35.818C91.648 38.931 82.793 40.509 73.918 40.509Z" fill="white"/>
<path d="M73.9183 40.509C65.0403 40.509 56.1853 38.931 47.6013 35.817C45.7293 35.138 44.7633 33.07 45.4413 31.199C46.1173 29.328 48.1893 28.364 50.0563 29.039C57.8523 31.867 65.8833 33.3 73.9183 33.3C75.9093 33.3 77.5223 34.913 77.5223 36.904C77.5223 38.896 75.9093 40.509 73.9183 40.509Z" fill="white"/>
<path d="M122.181 126.658C121.345 126.658 120.503 126.367 119.819 125.774C113.785 120.527 106.96 116.384 99.5351 113.461C97.6821 112.732 96.7731 110.64 97.5021 108.787C98.2281 106.936 100.32 106.029 102.176 106.754C110.364 109.978 117.893 114.548 124.549 120.334C126.05 121.64 126.21 123.917 124.904 125.419C124.191 126.239 123.189 126.658 122.181 126.658Z" fill="white"/>
<path d="M100.855 113.713C100.416 113.713 99.968 113.631 99.534 113.461C91.267 110.209 82.649 108.559 73.918 108.559C71.927 108.559 70.314 106.946 70.314 104.955C70.314 102.964 71.927 101.351 73.918 101.351C83.556 101.351 93.064 103.168 102.175 106.754C104.025 107.482 104.937 109.575 104.208 111.426C103.651 112.846 102.291 113.713 100.855 113.713Z" fill="white"/>
<path d="M46.9792 113.713C45.5432 113.713 44.1832 112.846 43.6262 111.427C42.8972 109.576 43.8092 107.482 45.6592 106.755C54.7702 103.169 64.2792 101.352 73.9192 101.352C75.9102 101.352 77.5232 102.965 77.5232 104.956C77.5232 106.947 75.9102 108.56 73.9192 108.56C65.1852 108.56 56.5662 110.21 48.3002 113.462C47.8662 113.632 47.4182 113.713 46.9792 113.713Z" fill="white"/>
<path d="M25.6558 126.658C24.6478 126.658 23.6458 126.239 22.9328 125.419C21.6268 123.917 21.7868 121.64 23.2878 120.334C29.9378 114.551 37.4648 109.981 45.6578 106.754C47.5078 106.028 49.6028 106.934 50.3318 108.787C51.0608 110.638 50.1518 112.732 48.2988 113.461C40.8708 116.386 34.0458 120.528 28.0178 125.774C27.3368 126.367 26.4918 126.658 25.6558 126.658Z" fill="white"/>
<path d="M109.53 76.712C107.539 76.712 105.926 75.099 105.926 73.108C105.926 59.519 102.443 46.057 95.8539 34.177C94.8879 32.435 95.5159 30.242 97.2559 29.276C98.9989 28.312 101.192 28.94 102.155 30.68C109.338 43.628 113.133 58.3 113.133 73.108C113.134 75.099 111.521 76.712 109.53 76.712Z" fill="white"/>
<path d="M73.9163 8.11201C73.2063 8.11201 72.4883 7.90202 71.8613 7.46702C71.6193 7.29802 71.3883 7.12102 71.1543 6.94102C71.0193 6.83502 70.8843 6.72701 70.7403 6.63001C69.1013 5.50101 68.6873 3.25701 69.8163 1.61701C70.9423 -0.0229888 73.1833 -0.437992 74.8283 0.692008C75.0813 0.868008 75.3263 1.05502 75.5713 1.24502L75.9763 1.549C77.6093 2.686 78.0123 4.93202 76.8773 6.56602C76.1763 7.57302 75.0563 8.11201 73.9163 8.11201Z" fill="white"/>
<path d="M72.7861 146.155C71.6291 146.155 70.4941 145.6 69.7991 144.57C68.6841 142.92 69.1151 140.682 70.7651 139.567C70.9061 139.471 71.0411 139.364 71.1761 139.26C71.4011 139.085 71.6261 138.911 71.8601 138.748C73.4991 137.613 75.7401 138.013 76.8771 139.649C78.0121 141.282 77.6091 143.529 75.9761 144.666L75.5901 144.956C75.3341 145.156 75.0721 145.353 74.8021 145.536C74.1831 145.955 73.4821 146.155 72.7861 146.155Z" fill="white"/>
<path d="M100.852 113.713C100.317 113.713 99.774 113.593 99.264 113.341C97.476 112.461 96.741 110.302 97.622 108.515C103.132 97.323 105.925 85.41 105.925 73.107C105.925 71.116 107.538 69.503 109.529 69.503C111.52 69.503 113.133 71.116 113.133 73.107C113.133 86.523 110.089 99.508 104.086 111.699C103.463 112.974 102.181 113.713 100.852 113.713Z" fill="white"/>
<path d="M73.9209 145.31C72.7919 145.31 71.6769 144.781 70.9759 143.787C69.8269 142.162 70.2129 139.913 71.8379 138.764C82.7769 131.025 91.6939 120.567 97.6199 108.517C98.5009 106.729 100.661 105.994 102.446 106.874C104.231 107.752 104.969 109.913 104.09 111.698C97.6309 124.823 87.9169 136.218 75.9989 144.648C75.3679 145.096 74.6419 145.31 73.9209 145.31Z" fill="white"/>
<path d="M99.008 36.032C97.741 36.032 96.511 35.363 95.855 34.177C90.041 23.693 81.735 14.452 71.838 7.45097C70.213 6.30197 69.828 4.05297 70.976 2.42797C72.125 0.798973 74.38 0.415973 75.999 1.56597C86.774 9.18797 95.821 19.255 102.156 30.679C103.122 32.421 102.494 34.614 100.754 35.58C100.199 35.887 99.6 36.032 99.008 36.032Z" fill="white"/>
<path d="M38.304 76.712H4.41504C2.42404 76.712 0.811035 75.099 0.811035 73.108C0.811035 71.117 2.42404 69.504 4.41504 69.504H38.304C40.295 69.504 41.908 71.117 41.908 73.108C41.908 75.099 40.294 76.712 38.304 76.712Z" fill="white"/>
<path d="M109.53 76.712H73.918C71.927 76.712 70.314 75.099 70.314 73.108C70.314 71.117 71.927 69.504 73.918 69.504H109.53C111.521 69.504 113.134 71.117 113.134 73.108C113.134 75.099 111.521 76.712 109.53 76.712Z" fill="white"/>
<path d="M73.9182 76.712H38.3032C36.3122 76.712 34.6992 75.099 34.6992 73.108C34.6992 71.117 36.3122 69.504 38.3032 69.504H73.9182C75.9092 69.504 77.5222 71.117 77.5222 73.108C77.5222 75.099 75.9092 76.712 73.9182 76.712Z" fill="white"/>
<path d="M141.366 76.712H109.53C107.539 76.712 105.926 75.099 105.926 73.108C105.926 71.117 107.539 69.504 109.53 69.504H141.366C143.357 69.504 144.97 71.117 144.97 73.108C144.97 75.099 143.357 76.712 141.366 76.712Z" fill="white"/>
<path d="M73.918 40.509C71.927 40.509 70.314 38.896 70.314 36.905V4.50903C70.314 2.51803 71.927 0.905029 73.918 0.905029C75.909 0.905029 77.522 2.51803 77.522 4.50903V36.905C77.522 38.896 75.909 40.509 73.918 40.509Z" fill="white"/>
<path d="M73.918 76.712C71.927 76.712 70.314 75.099 70.314 73.108V36.905C70.314 34.914 71.927 33.301 73.918 33.301C75.909 33.301 77.522 34.914 77.522 36.905V73.108C77.522 75.099 75.909 76.712 73.918 76.712Z" fill="white"/>
<path d="M73.918 145.31C71.927 145.31 70.314 143.697 70.314 141.706V104.955C70.314 102.964 71.927 101.351 73.918 101.351C75.909 101.351 77.522 102.964 77.522 104.955V141.706C77.522 143.697 75.909 145.31 73.918 145.31Z" fill="white"/>
<path d="M73.918 8.112C71.927 8.112 70.314 6.49901 70.314 4.50801V3.604C70.314 1.613 71.927 0 73.918 0C75.909 0 77.522 1.613 77.522 3.604V4.50801C77.522 6.49901 75.909 8.112 73.918 8.112Z" fill="white"/>
<path d="M73.918 108.559C71.927 108.559 70.314 106.946 70.314 104.955V73.108C70.314 71.117 71.927 69.504 73.918 69.504C75.909 69.504 77.522 71.117 77.522 73.108V104.955C77.522 106.946 75.909 108.559 73.918 108.559Z" fill="white"/>
<path d="M73.918 146.214C71.927 146.214 70.314 144.601 70.314 142.61V141.706C70.314 139.715 71.927 138.102 73.918 138.102C75.909 138.102 77.522 139.715 77.522 141.706V142.61C77.522 144.601 75.909 146.214 73.918 146.214Z" fill="white"/>
</svg>
